<?xml version="1.0" encoding="UTF-8" standalone="no"?>
<svg width="207px" height="188px" viewBox="0 0 207 188" version="1.1" xmlns="http://www.w3.org/2000/svg" xmlns:xlink="http://www.w3.org/1999/xlink">
    <!-- Generator: Sketch 3.7.2 (28276) - http://www.bohemiancoding.com/sketch -->
    <title>Logo</title>
    <desc>Created with Sketch.</desc>
    <defs></defs>
    <g id="Page-1" stroke="none" stroke-width="1" fill="none" fill-rule="evenodd">
        <g id="03_Contratos_Player" transform="translate(-18.000000, -23.000000)">
            <g id="Logo" transform="translate(18.000000, 22.000000)">
                <path d="M20.4129208,157.637797 L13.8791188,157.637797 C12.8231455,155.816243 11.9651801,154.311503 11.3051968,153.123533 C10.1436262,151.011587 9.48365279,149.810435 9.3252568,149.520043 C8.24288419,147.751287 7.38491877,146.708529 6.7513348,146.391737 C6.48734148,146.259741 6.19695318,146.180544 5.8801612,146.154145 L5.8801612,157.637797 L0.4551256,157.637797 L0.4551256,130.077032 L10.7112148,130.116631 C13.1399533,130.116631 15.0934746,130.849201 16.5718372,132.314364 C18.0501998,133.779527 18.78937,135.739648 18.78937,138.194786 C18.78937,140.095538 18.2481918,141.798269 17.1658192,143.303031 C16.0042486,144.93979 14.4995092,145.771356 12.651556,145.797755 C13.1003446,146.167346 13.4831292,146.550131 13.7999212,146.946121 C14.7502972,148.16049 16.9546083,151.724346 20.4129208,157.637797 L20.4129208,157.637797 Z M12.9683464,138.313582 C12.9683464,136.80882 12.4535671,135.766062 11.4239932,135.185277 C10.6584126,134.762888 9.47046045,134.551696 7.8601012,134.551696 L5.91976,134.551696 L5.8801612,141.996271 L7.7413048,141.996271 C9.43086205,141.996271 10.6452131,141.798279 11.3843944,141.402289 C12.4403677,140.847903 12.9683464,139.818344 12.9683464,138.313582 L12.9683464,138.313582 Z M29.2038544,157.637797 L23.4224296,157.637797 L23.4224296,130.116631 L29.2038544,130.116631 L29.2038544,157.637797 Z M55.616254,130.077032 L46.0333444,157.835791 L41.0042968,157.835791 L31.65898,130.116631 L37.7175964,130.116631 L42.2318596,144.451396 C42.7598462,146.114554 43.1954287,147.71169 43.53862,149.242851 C43.8290127,147.817287 44.3569914,145.982561 45.122572,143.738618 L49.7952304,130.116631 L55.616254,130.077032 Z M74.029696,157.637797 L57.992182,157.637797 L57.992182,130.116631 L73.6733068,130.116631 L72.9605284,134.630894 L63.536014,134.630894 L63.536014,141.006301 L71.4161752,141.006301 L71.4161752,145.520564 L63.6152116,145.520564 L63.6152116,152.885941 L74.029696,152.885941 L74.029696,157.637797 Z M97.5117844,157.637797 L90.9779824,157.637797 C89.9220091,155.816243 89.0640437,154.311503 88.4040604,153.123533 C87.2424898,151.011587 86.5825164,149.810435 86.4241204,149.520043 C85.3417478,147.751287 84.4837824,146.708529 83.8501984,146.391737 C83.5862051,146.259741 83.2958168,146.180544 82.9790248,146.154145 L82.9790248,157.637797 L77.5539892,157.637797 L77.5539892,130.077032 L87.8100784,130.116631 C90.2388169,130.116631 92.1923382,130.849201 93.6707008,132.314364 C95.1490634,133.779527 95.8882336,135.739648 95.8882336,138.194786 C95.8882336,140.095538 95.3470554,141.798269 94.2646828,143.303031 C93.1031122,144.93979 91.5983728,145.771356 89.7504196,145.797755 C90.1992082,146.167346 90.5819928,146.550131 90.8987848,146.946121 C91.8491608,148.16049 94.0534719,151.724346 97.5117844,157.637797 L97.5117844,157.637797 Z M90.06721,138.313582 C90.06721,136.80882 89.5524307,135.766062 88.5228568,135.185277 C87.7572762,134.762888 86.5693241,134.551696 84.9589648,134.551696 L83.0186236,134.551696 L82.9790248,141.996271 L84.8401684,141.996271 C86.5297256,141.996271 87.7440767,141.798279 88.483258,141.402289 C89.5392313,140.847903 90.06721,139.818344 90.06721,138.313582 L90.06721,138.313582 Z" id="RIVER" fill="#000000"></path>
                <text id="-" font-family="MetaBold, Meta" font-size="39.5988" font-weight="bold"></text>
                <path d="M126.853717,138.511576 C126.853717,140.280331 126.457733,141.864268 125.665753,143.263432 C124.847374,144.741795 123.659421,145.85055 122.101861,146.589731 C120.808294,147.196916 118.973567,147.500504 116.597628,147.500504 L113.54852,147.500504 L113.54852,157.637797 L108.004688,157.637797 L108.004688,130.037433 L115.251268,130.037433 C118.73598,130.037433 121.283478,130.486215 122.893837,131.383792 C125.53377,132.862155 126.853717,135.238059 126.853717,138.511576 L126.853717,138.511576 Z M120.7951,138.630373 C120.7951,137.389604 120.478313,136.393044 119.844729,135.640663 C119.211145,134.888282 118.287182,134.512097 117.072813,134.512097 L113.54852,134.512097 L113.54852,142.986241 L116.439232,142.986241 C117.468806,142.986241 118.168378,142.933443 118.537969,142.827845 C120.042731,142.405456 120.7951,141.006313 120.7951,138.630373 L120.7951,138.630373 Z" id="P" fill="#000000"></path>
                <polygon id="L" fill="#000000" points="144.871171 153.044336 143.881201 157.637797 129.348441 157.637797 129.348441 130.116631 135.01107 130.116631 135.01107 153.044336"></polygon>
                <path d="M168.352798,157.637797 L162.412978,157.637797 L160.472637,151.103995 L152.394482,151.103995 L150.45414,157.637797 L144.672716,157.637797 L153.701242,130.037433 L159.680661,130.037433 L168.352798,157.637797 Z M159.126278,146.510534 C158.783086,145.454561 158.281506,143.606635 157.621523,140.966702 C157.542325,140.676309 157.17274,139.052775 156.512757,136.096049 L155.205996,141.402289 C154.783607,143.118245 154.295227,144.820977 153.740841,146.510534 L159.126278,146.510534 Z M187.875006,130.116631 L186.964234,134.710091 L180.390833,134.710091 L180.390833,157.637797 L174.767804,157.637797 L174.767804,134.710091 L168.036008,134.710091 L168.036008,130.116631 L187.875006,130.116631 Z M206.288448,157.637797 L190.250934,157.637797 L190.250934,130.116631 L205.932059,130.116631 L205.219281,134.630894 L195.794766,134.630894 L195.794766,141.006301 L203.674928,141.006301 L203.674928,145.520564 L195.873964,145.520564 L195.873964,152.885941 L206.288448,152.885941 L206.288448,157.637797 Z" id="ATE" fill="#000000"></path>
                <polygon id="Fill-4" fill="#000000" points="2.2624 176.7289 2.2624 188.4909 8.9134 188.4909 8.9134 187.2649 3.6964 187.2649 3.6964 182.9639 7.7564 182.9639 7.7564 181.7369 3.6964 181.7369 3.6964 177.9029 8.5504 177.9029 8.7404 176.7289"></polygon>
                <polygon id="Fill-5" fill="#000000" points="18.0808 176.6416 18.0808 188.4906 23.9888 188.4906 24.1788 187.3006 19.4978 187.3006 19.4978 176.6416"></polygon>
                <g id="Group-54" transform="translate(44.000000, 0.716000)">
                    <path d="M1.6591,175.9258 L3.7311,175.9258 L5.8911,183.6638 C6.1151,184.4928 6.2011,184.8218 6.3571,185.7378 C6.5471,184.7358 6.6341,184.4068 6.7891,183.8028 L9.0171,175.9258 L11.1071,175.9258 L12.1261,187.7758 L10.7101,187.7758 L10.0181,179.0868 C9.9671,178.3268 9.9321,177.0668 9.9321,177.0668 C9.8111,177.6538 9.6041,178.4648 9.4661,178.9318 L6.9271,187.7758 L5.7181,187.7758 L3.3691,179.3638 C3.1271,178.4648 2.9541,177.8778 2.7811,177.0488 C2.7811,177.0488 2.6951,178.6208 2.6431,179.3458 L1.9871,187.7758 L0.6221,187.7758 L1.6591,175.9258 Z" id="Fill-6" fill="#000000"></path>
                    <path d="M26.2939,172.6152 L26.8329,173.5802 L24.0259,174.8332 L23.6999,174.2442 L26.2939,172.6152 Z M22.7099,182.9732 L26.3719,182.9732 C26.3719,182.9732 25.4399,180.0192 25.1279,179.0012 L24.5589,177.1702 L23.9709,178.9142 C23.9009,179.1562 22.7099,182.9732 22.7099,182.9732 L22.7099,182.9732 Z M25.5429,175.9262 L29.4639,187.7752 L27.8579,187.7752 L26.7339,184.1312 L22.3129,184.1312 L21.1729,187.7752 L19.7389,187.7752 L23.6939,175.9262 L25.5429,175.9262 Z" id="Fill-8" fill="#000000"></path>
                    <path d="M44.7989,176.8066 L44.1769,177.8266 C43.0369,177.0826 42.3119,176.8246 41.2919,176.8246 C39.8069,176.8246 38.9259,177.5676 38.9259,178.7766 C38.9259,179.7266 39.4959,180.2796 40.8949,180.7106 L42.2599,181.1426 C43.3139,181.4706 43.8829,181.7816 44.3499,182.3336 C44.8329,182.8866 45.1269,183.6816 45.1269,184.4246 C45.1269,185.5306 44.5229,186.5666 43.4869,187.2746 C42.7089,187.7756 41.9139,187.9996 40.8259,187.9996 C39.4089,187.9996 38.1999,187.6546 37.0249,186.9286 L37.6479,185.8236 C38.6319,186.5316 39.6339,186.8426 40.8259,186.8426 C41.7239,186.8426 42.2079,186.7046 42.7089,186.3246 C43.2779,185.8926 43.5549,185.3226 43.5549,184.6316 C43.5549,183.5776 42.8639,182.8526 41.4309,182.4206 L40.2379,182.0576 C39.1679,181.7296 38.5979,181.4886 38.1309,181.0036 C37.6479,180.4866 37.3889,179.8296 37.3889,179.0706 C37.3889,177.0486 38.9259,175.6666 41.2229,175.6666 C42.5009,175.6666 43.6759,176.0466 44.7989,176.8066" id="Fill-10" fill="#000000"></path>
                    <path d="M74.6739,176.997 L74.0349,177.878 C73.0669,177.222 72.3769,176.963 71.4609,176.963 C70.0789,176.963 68.9909,177.602 68.5079,178.966 C68.1969,179.847 68.0409,180.849 68.0409,181.972 C68.0409,183.526 68.3349,184.787 68.8699,185.564 C69.4059,186.342 70.6149,186.825 71.7369,186.825 C72.4809,186.825 73.1189,186.67 73.6199,186.359 L73.6199,182.749 L71.2359,182.749 L70.9609,181.574 L74.9499,181.574 L74.9499,187.102 C74.1049,187.654 72.8259,188 71.6169,188 C70.1309,188 68.8699,187.481 67.9729,186.515 C66.9709,185.426 66.5039,183.958 66.5039,181.92 C66.5039,179.657 67.0919,178.033 68.3349,176.945 C69.1819,176.186 70.1999,175.822 71.4269,175.822 C72.6879,175.822 73.7759,176.22 74.6739,176.997" id="Fill-12" fill="#000000"></path>
                    <path d="M85.9668,177.1347 L85.9668,181.5567 L87.2278,181.5567 C88.2808,181.5567 88.9378,181.3847 89.3688,180.9517 C89.7668,180.5897 89.9738,179.9507 89.9738,179.1737 C89.9738,178.3967 89.4898,177.6357 88.8168,177.3767 C88.4368,177.2217 87.9698,177.1347 87.3308,177.1347 L85.9668,177.1347 Z M84.5328,175.9437 L87.2968,175.9437 C88.9198,175.9437 89.7148,176.2377 90.2848,176.7027 C90.8208,177.1347 91.4588,177.9297 91.4588,179.1907 C91.4588,181.1427 90.1978,182.4387 88.3158,182.4387 L88.1428,182.4387 C88.6958,182.8867 89.0928,183.4397 89.3348,183.7677 C89.5758,184.0967 89.8878,184.5627 90.3018,185.1507 C90.7338,185.7887 92.0638,187.7757 92.0638,187.7757 L90.2848,187.7757 C90.0078,187.1537 89.8878,186.9287 89.3688,186.1347 C88.6268,185.0117 87.9018,183.9757 87.2618,183.1977 C86.7958,182.6107 86.5358,182.4547 85.9488,182.4387 L85.9488,187.7757 L84.5328,187.7757 L84.5328,175.9437 Z" id="Fill-14" fill="#000000"></path>
                    <path d="M102.7695,182.9736 L106.4315,182.9736 C106.4315,182.9736 105.4995,180.0196 105.1875,179.0006 L104.6185,177.1696 L104.0305,178.9136 C103.9605,179.1566 102.7695,182.9736 102.7695,182.9736 L102.7695,182.9736 Z M105.6025,175.9256 L109.5235,187.7756 L107.9165,187.7756 L106.7935,184.1306 L102.3725,184.1306 L101.2325,187.7756 L99.7985,187.7756 L103.7535,175.9256 L105.6025,175.9256 Z" id="Fill-16" fill="#000000"></path>
                    <path d="M117.9659,175.9609 L119.6079,175.9609 L123.5449,183.5089 C123.9779,184.3549 124.6499,185.9789 124.6499,185.9789 C124.6499,185.9789 124.5129,183.9399 124.4949,182.3869 L124.4429,175.9609 L125.8429,175.9609 L125.8429,187.7749 L124.3579,187.7749 L120.5579,180.5379 C120.0049,179.4669 119.4519,178.3449 119.2099,177.7049 C119.2959,178.7069 119.3479,179.7429 119.3649,180.9179 L119.4349,187.7749 L117.9659,187.7749 L117.9659,175.9609 Z" id="Fill-18" fill="#000000"></path>
                    <path d="M137.17,177.1875 L137.17,186.6005 L138.431,186.6005 C139.191,186.6005 139.45,186.5835 139.882,186.5145 C140.59,186.3935 141.246,185.9615 141.592,185.3735 C142.145,184.4765 142.387,183.3355 142.387,182.0925 C142.387,180.3135 142.162,179.2075 141.367,178.2575 C140.59,177.3425 139.83,177.1875 138.587,177.1875 L137.17,177.1875 Z M135.754,176.0295 L138.12,176.0295 C139.934,176.0295 140.763,176.1165 141.92,176.9455 C143.268,177.9125 143.924,179.6055 143.924,181.9195 C143.924,183.9925 143.371,185.4255 142.576,186.3075 C141.54,187.4645 140.693,187.7755 138.846,187.7755 L135.754,187.7755 L135.754,176.0295 Z" id="Fill-20" fill="#000000"></path>
                    <polygon id="Fill-22" fill="#000000" points="153.4883 176.0127 159.9663 176.0127 159.7753 177.1877 154.9223 177.1877 154.9223 181.0217 158.9813 181.0217 158.9813 182.2477 154.9223 182.2477 154.9223 186.5487 160.1383 186.5487 160.1383 187.7757 153.4883 187.7757"></polygon>
                    <path d="M89.916,1.5039 C89.916,1.5039 83.339,7.1659 58.539,7.2019 C33.717,7.3879 27.067,1.7739 27.067,1.7739 L9.221,19.6389 C9.221,19.6389 18.439,36.8969 18.534,57.0059 C18.534,57.0059 21.035,110.5449 59.061,125.4149 C96.945,110.2419 98.957,56.6309 98.957,56.6309 C98.847,36.5299 107.937,19.1969 107.937,19.1969 L89.916,1.5039 Z" id="Fill-24" fill="#FEFEFE"></path>
                    <path d="M19.4219,56.9785 C19.4819,57.5275 20.2079,70.6925 25.3889,85.4115 C30.2329,99.0315 39.9789,116.8365 59.0609,124.4165 C78.0619,116.6415 87.6619,98.7275 92.3399,85.0095 C97.4179,70.2735 98.0279,57.1575 98.0509,56.5995 C97.9719,38.6195 105.2419,22.6235 106.8129,19.3765 L89.8179,2.6545 C87.5689,4.0945 79.4829,7.9995 59.0309,8.1205 L58.5069,8.1205 L58.1629,8.1205 C37.5769,8.2275 29.4719,4.3775 27.1889,2.9705 L10.3319,19.7865 C11.9569,23.0165 19.3299,38.9855 19.4219,56.9785 L19.4219,56.9785 Z M59.0789,126.3875 L58.7439,126.2375 C49.8949,122.8175 42.2459,117.0155 35.9429,109.0455 C30.9589,102.6645 26.8249,94.8805 23.6699,85.9555 C18.2889,70.7555 17.6189,57.1845 17.5979,57.0325 L17.5979,57.0055 C17.5119,37.3605 8.4809,20.2195 8.4129,20.0365 L8.0959,19.4835 L27.0189,0.5425 L27.6929,1.1045 C27.7289,1.1595 34.4259,6.4235 58.1419,6.3085 L58.5069,6.3085 L59.0309,6.3085 C82.5829,6.1785 89.2609,0.8645 89.2959,0.8015 L89.9609,0.2845 L90.5579,0.8645 L109.0799,19.0095 L108.7619,19.6075 C108.6649,19.7635 99.7829,36.9765 99.8399,56.6305 L99.8679,56.6795 C99.8679,56.8045 99.3099,70.3625 94.0849,85.6245 C91.0239,94.5945 86.9449,102.3785 82.0079,108.8225 C75.7959,116.8465 68.1949,122.7015 59.4079,126.2375 L59.0789,126.3875 Z" id="Fill-26" fill="#000000"></path>
                    <path d="M58.9541,11.084 C36.5611,11.22 27.3331,6.608 27.3331,6.608 L14.0791,19.933 C14.0791,19.933 22.4221,38.934 22.4991,57.411 C22.4991,57.411 22.7531,63.18 24.4211,71.368 L59.3391,11.067 L58.9541,11.084 Z" id="Fill-28" fill="#FEFEFE"></path>
                    <path d="M48.2081,115.2676 C51.4541,117.7486 54.3371,119.4476 58.8071,121.6126 C92.8341,107.3366 95.4291,57.1786 95.4291,57.1786 C95.9151,40.1486 99.9721,29.7676 101.4841,25.3336 L48.0461,115.5876 L48.2081,115.2676 Z" id="Fill-30" fill="#FEFEFE"></path>
                    <path d="M63.7402,11.0039 L25.8082,76.3999 C28.8022,88.1129 34.7312,101.8939 45.5662,112.5819 L100.7362,17.4849 L89.6472,6.3739 C89.6472,6.3739 82.6252,10.3069 63.7402,11.0039" id="Fill-32" fill="#DF0020"></path>
                    <path d="M29.5527,55.2109 C29.4717,39.2709 42.4947,26.3019 58.6377,26.2079 C74.7347,26.1279 87.8507,39.0029 87.9267,54.9359 C88.0017,70.8899 74.9897,83.8859 58.8497,83.9389 C42.7777,84.0109 29.6077,71.1389 29.5527,55.2109" id="Fill-34" fill="#FEFEFE"></path>
                    <path d="M24.6826,70.0449 C23.4906,64.1289 23.0236,59.4109 22.8406,56.9719 L22.8296,56.8609 C22.7176,40.6349 17.0256,25.8949 14.4426,20.0329 L27.3526,7.1319 C32.1476,9.1439 41.1716,11.4829 57.1876,11.4819 L58.6976,11.4809 L24.6826,70.0449 Z M59.6906,11.4729 L60.2076,10.6009 L60.1916,10.6009 L60.1986,10.5889 L60.1356,10.6019 C59.7356,10.6079 59.3326,10.6099 58.9236,10.6129 L57.1876,10.6149 C41.0176,10.6149 32.0756,8.2269 27.4196,6.2229 L27.1606,6.1109 L13.4216,19.8399 L13.5456,20.1149 C16.0426,25.7279 21.8676,40.5449 21.9826,56.8969 L21.9926,57.0379 C22.1996,59.7889 22.7756,65.4359 24.3176,72.4029 L24.5216,72.0399 L59.6846,11.4729 L59.6906,11.4729 Z" id="Fill-36" fill="#000000"></path>
                    <path d="M28.6611,84.6133 C27.6911,81.8543 26.8881,79.1583 26.2061,76.5753 L64.1051,11.3653 C77.4221,10.8463 85.1741,8.6963 89.4751,6.8323 L100.2581,17.4593 L45.4511,112.0493 C36.9421,103.8693 31.7441,93.2973 28.6611,84.6133 L28.6611,84.6133 Z M100.8881,18.0773 L101.3281,17.3193 L101.3241,17.3193 L101.3291,17.3093 L89.6561,5.8063 L89.3951,5.9233 C85.1741,7.8023 77.3721,10.0233 63.6531,10.5153 L63.6411,10.4983 L25.3121,76.4533 L25.3141,76.4543 L25.3001,76.4823 C26.0001,79.1813 26.8451,82.0143 27.8601,84.9073 C31.0711,93.9533 36.5471,105.0303 45.6351,113.4193 L45.9711,112.8083 L100.8881,18.0773 Z" id="Fill-38" fill="#000000"></path>
                    <path d="M94.4189,56.5771 C94.3899,57.1251 93.6809,70.1621 88.8369,84.2421 C84.5419,96.8611 75.8709,113.4941 58.9309,121.1951 C55.2239,119.5551 51.9069,117.4781 48.9349,115.1091 L99.3039,28.1121 C96.8859,35.4701 94.3819,45.7231 94.4189,56.5771 L94.4189,56.5771 Z M101.6139,24.1141 C101.6159,24.1111 101.6169,24.1081 101.6179,24.1051 L100.8729,23.6681 C100.8619,23.6961 100.8519,23.7261 100.8399,23.7551 L48.2639,114.5721 C48.2599,114.5691 48.2569,114.5671 48.2549,114.5651 L47.8189,115.3201 C47.8219,115.3221 47.8229,115.3241 47.8269,115.3271 L47.8229,115.3311 L47.8339,115.3331 C51.0499,117.9741 54.6779,120.2781 58.7659,122.0661 L58.9369,122.1411 L59.1059,122.0651 C76.4349,114.2701 85.2739,97.3491 89.6389,84.5261 C94.5239,70.3321 95.2389,57.1751 95.2669,56.5971 C95.2249,43.5471 98.8859,31.3701 101.6059,24.1361 L101.6179,24.1161 L101.6139,24.1141 Z" id="Fill-40" fill="#000000"></path>
                    <path d="M58.6064,26.6679 C42.7774,26.7479 29.9374,39.5689 30.0124,55.2029 C30.0794,70.8449 43.0484,83.5189 58.8494,83.4839 L58.9004,83.9289 L58.8814,83.4839 C74.7344,83.4109 87.5144,70.5869 87.4764,54.9359 C87.3954,39.2849 74.4574,26.6009 58.6064,26.6679 M58.8814,84.3759 L58.8814,84.3939 C42.5404,84.4469 29.1964,71.3609 29.1254,55.2029 C29.0324,39.0739 42.2464,25.8559 58.6064,25.7349 C74.9304,25.7039 88.3234,38.7879 88.3804,54.9179 C88.4694,71.0939 75.2254,84.3039 58.8814,84.3759" id="Fill-42" fill="#000000"></path>
                    <path d="M58.6064,26.6679 C42.7774,26.7479 29.9374,39.5689 30.0124,55.2029 C30.0794,70.8449 43.0484,83.5189 58.8494,83.4839 L58.9004,83.9289 L58.8814,83.4839 C74.7344,83.4109 87.5144,70.5869 87.4764,54.9359 C87.3954,39.2849 74.4574,26.6009 58.6064,26.6679" id="Fill-44" fill="#FEFEFE"></path>
                    <path d="M54.8125,76.2539 C44.8165,74.4239 37.2425,65.6579 37.2425,55.1409 C37.2425,44.6169 44.8165,35.8749 54.8125,34.0309 L54.8125,29.3179 C42.2365,31.2019 32.5955,42.0459 32.5955,55.1409 C32.5955,56.6749 32.7345,58.1709 32.9805,59.6239 C34.8905,70.6489 43.7065,79.2979 54.8125,80.9659 L54.8125,76.2539 Z" id="Fill-46" fill="#000000"></path>
                    <path d="M50.5547,52.5342 L45.0037,52.5342 C45.6817,48.9632 47.7077,45.8752 50.5547,43.8272 L50.5547,52.5342 Z M39.8797,55.1402 C39.8797,61.5172 43.0487,67.1402 47.8857,70.5422 L47.8857,63.9442 C46.2627,61.9452 45.1767,59.4922 44.8617,56.8002 L50.5547,56.8002 L50.5547,72.0952 C50.5547,72.0952 52.3167,73.0402 54.8127,73.5662 L54.8127,36.7182 C46.2887,38.5132 39.8797,46.0802 39.8797,55.1402 L39.8797,55.1402 Z" id="Fill-48" fill="#000000"></path>
                    <path d="M76.1622,63.2451 L76.1712,42.2331 C78.5312,45.0811 79.9562,48.7491 79.9562,52.7491 C79.9562,56.7211 78.5052,60.4011 76.1622,63.2451 M75.7102,35.1831 L75.7102,35.1651 C74.4362,34.0451 72.8102,33.0501 71.9152,32.5321 L71.9152,77.6901 C72.8542,77.1281 74.9972,75.6021 76.1712,74.5581 L76.1712,69.8011 C81.1782,65.6141 84.3422,59.5001 84.3422,52.6811 C84.3422,45.6571 80.9902,39.3821 75.7102,35.1831" id="Fill-50" fill="#000000"></path>
                    <path d="M61.8184,34.8799 C63.7294,35.3039 65.1564,36.7799 65.2004,38.8239 L65.2004,59.9549 C65.0854,61.9279 63.6934,63.3519 61.8184,63.7579 L61.8184,34.8799 Z M65.5484,80.2159 C65.5484,80.2159 67.5924,79.8239 69.7844,78.6379 L66.0494,67.2119 L66.0684,67.1589 C66.7324,66.6869 67.3434,66.1409 67.8524,65.4879 C68.7984,64.3919 69.5404,62.9369 69.5404,61.0259 L69.5404,56.5509 L69.5474,56.5509 L69.5474,38.1989 C69.5474,29.0509 57.5784,28.9889 57.5784,28.9889 L57.5614,81.2259 C57.5614,81.2259 59.6904,81.2979 61.8094,81.0119 L61.8094,69.0229 L61.8674,69.0159 L65.5484,80.2159 Z" id="Fill-52" fill="#000000"></path>
                </g>
            </g>
        </g>
    </g>
</svg>