<?xml version="1.0" encoding="UTF-8" standalone="no"?>
<svg width="34px" height="38px" viewBox="0 0 34 38" version="1.1" xmlns="http://www.w3.org/2000/svg" xmlns:xlink="http://www.w3.org/1999/xlink">
    <!-- Generator: Sketch 3.7.1 (28215) - http://www.bohemiancoding.com/sketch -->
    <title>DJ_comp_representante</title>
    <desc>Created with Sketch.</desc>
    <defs></defs>
    <g id="Page-1" stroke="none" stroke-width="1" fill="none" fill-rule="evenodd">
        <g id="04_Compara_Datos" transform="translate(-31.000000, -1554.000000)" stroke="#808080">
            <g id="1er" transform="translate(10.000000, 308.000000)">
                <g id="Representante" transform="translate(0.000000, 1230.000000)">
                    <g id="DJ_comp_representante" transform="translate(22.000000, 18.000000)">
                        <ellipse id="Oval-14" stroke-width="2.1" cx="6.21153846" cy="4.47845963" rx="3.59615385" ry="4.47845963"></ellipse>
                        <path d="M6.46633591,10.668923 C6.46633591,10.668923 12.1778744,10.455663 11.543259,12.5882629 C11.1201821,16.6402025 9.63941284,29.8623214 9.42787437,31.5684013 C9.21633591,33.2744811 7.73556668,34.1275211 6.25479745,34.1275211 C4.77402822,34.1275211 2.6586436,33.4877411 2.6586436,31.5684013 C2.44710514,29.4358015 0.966335913,15.1473826 0.54325899,12.5882629 C-0.0913563951,10.455663 6.46633591,10.668923 6.46633591,10.668923 Z" id="Path-27" stroke-width="2.1"></path>
                        <path d="M1.13461538,18.9801384 L10.8653846,18.9801384" id="Line" stroke-width="1.26" stroke-linecap="square"></path>
                        <path d="M6.21153846,24.9514179 L6.21153846,33.9083372" id="Line" stroke-width="1.26" stroke-linecap="round"></path>
                        <rect id="Rectangle-4" stroke-width="2.38636364" stroke-linecap="round" x="14" y="8" width="9.65853659" height="4.73684211" rx="1.98863636"></rect>
                        <path d="M11.5,13 C11.5,13 28.1158537,13 29.1219512,13 C30.1280488,13 30.9329268,13.5921053 30.9329268,14.3815789 L30.9329268,30.1710526 C30.9329268,30.7631579 31.1341463,31.9473684 29.3231707,31.9473684 C27.5121951,31.9473684 9.40243902,31.9473684 9.40243902,31.9473684" id="Path-40" stroke-width="2.38636364"></path>
                    </g>
                </g>
            </g>
        </g>
    </g>
</svg>