<?xml version="1.0" encoding="UTF-8" standalone="no"?>
<svg width="18px" height="19px" viewBox="0 0 18 19" version="1.1" xmlns="http://www.w3.org/2000/svg" xmlns:xlink="http://www.w3.org/1999/xlink">
    <!-- Generator: Sketch 3.7.1 (28215) - http://www.bohemiancoding.com/sketch -->
    <title>PLANTEL_buscar</title>
    <desc>Created with Sketch.</desc>
    <defs></defs>
    <g id="Page-1" stroke="none" stroke-width="1" fill="none" fill-rule="evenodd">
        <g id="08_Escala_Resultado" transform="translate(-17.000000, -127.000000)" fill="#9D9DA3">
            <g id="Search-Field" transform="translate(0.000000, 107.000000)">
                <g id="PLANTEL_buscar" transform="translate(16.000000, 18.964286)">
                    <g id="Icon/Search-(Grey)" transform="translate(1.500000, 1.053571)">
                        <path d="M11.2110004,11.248362 L12.7973205,12.8346822 C13.2047345,12.8262829 13.6155567,12.9781094 13.9277867,13.2903393 L16.5670029,15.9295556 C17.0208027,16.3833554 17.138127,17.0448574 16.9129675,17.6034137 C16.8736951,17.7935599 16.7798621,17.9751987 16.6310859,18.123975 C16.5177226,18.2373383 16.3846633,18.3188978 16.2430164,18.3685558 C15.6534676,18.7034406 14.8893208,18.6184559 14.3837117,18.1128468 L11.7444955,15.4736305 C11.406276,15.1354111 11.254962,14.681817 11.293041,14.2414576 L9.72584658,12.6742632 C9.71415923,12.6625758 9.70281109,12.6506783 9.69180234,12.6385828 C8.72037398,13.2753791 7.5737681,13.6431664 6.34568067,13.6431664 C2.84105801,13.6431664 0,10.6480021 0,6.95327962 C0,3.25855718 2.84105801,0.263392857 6.34568067,0.263392857 C9.85030334,0.263392857 12.6913613,3.25855718 12.6913613,6.95327962 C12.6913613,8.58827543 12.1350092,10.0862798 11.2110004,11.248362 Z M1.95251713,6.95327962 C1.95251713,4.39539486 3.91940344,2.32181955 6.34568067,2.32181955 C8.7719579,2.32181955 10.7388442,4.39539486 10.7388442,6.95327962 C10.7388442,9.51116438 8.7719579,11.5847397 6.34568067,11.5847397 C3.91940344,11.5847397 1.95251713,9.51116438 1.95251713,6.95327962 Z" id="Search"></path>
                    </g>
                </g>
            </g>
        </g>
    </g>
</svg>