<?xml version="1.0" encoding="UTF-8" standalone="no"?>
<svg width="30px" height="30px" viewBox="0 0 30 30" version="1.1" xmlns="http://www.w3.org/2000/svg" xmlns:xlink="http://www.w3.org/1999/xlink">
    <!-- Generator: Sketch 3.7.1 (28215) - http://www.bohemiancoding.com/sketch -->
    <title>CONT_unCheck</title>
    <desc>Created with Sketch.</desc>
    <defs></defs>
    <g id="Page-1" stroke="none" stroke-width="1" fill="none" fill-rule="evenodd">
        <g id="03_Contratos_Player" transform="translate(-885.000000, -1301.000000)" fill="#EC1C2D">
            <g id="bonos-copy-2" transform="translate(730.000000, 1170.000000)">
                <g id="4" transform="translate(108.000000, 66.000000)">
                    <g id="CONT_unCheck" transform="translate(47.645485, 65.676471)">
                        <g id="Capa_1">
                            <path d="M14.2978386,0 C6.40129288,0 0,6.44077562 0,14.3897059 C0,22.3342941 6.40129288,28.7794118 14.2978386,28.7794118 C22.1947439,28.7794118 28.5953177,22.3342941 28.5953177,14.3897059 C28.5949582,6.44077562 22.1943844,0 14.2978386,0 L14.2978386,0 Z M19.6910312,22.5289647 L14.2978386,17.1027922 L8.9060841,22.5289647 L6.21038659,19.8158784 L11.6017816,14.3878967 L6.21038659,8.96172414 L8.9060841,6.24863787 L14.2974791,11.6748104 L19.6885146,6.25080892 L22.3842121,8.96389519 L16.9931766,14.3878967 L22.3860097,19.8158784 L19.6910312,22.5289647 L19.6910312,22.5289647 Z" id="Shape"></path>
                        </g>
                    </g>
                </g>
            </g>
        </g>
    </g>
</svg>