<?xml version="1.0" encoding="UTF-8" standalone="no"?>
<svg width="36px" height="45px" viewBox="0 0 36 45" version="1.1" xmlns="http://www.w3.org/2000/svg" xmlns:xlink="http://www.w3.org/1999/xlink">
    <!-- Generator: Sketch 3.7.1 (28215) - http://www.bohemiancoding.com/sketch -->
    <title>DJ_apto</title>
    <desc>Created with Sketch.</desc>
    <defs></defs>
    <g id="Page-1" stroke="none" stroke-width="1" fill="none" fill-rule="evenodd">
        <g id="01_DatosJugador_Player" transform="translate(-787.000000, -835.000000)">
            <g id="Sanidad" transform="translate(730.000000, 823.000000)">
                <g id="DJ_apto" transform="translate(58.000000, 13.000000)">
                    <g id="Injury" stroke="#808080">
                        <rect id="Rectangle-8" stroke-width="1.98863636" x="0" y="14.6052632" width="10.8658537" height="15.3947368" rx="1.59090909"></rect>
                        <rect id="Rectangle-8-Copy" stroke-width="1.98863636" x="0" y="3.94736842" width="10.8658537" height="5.92105263" rx="1.59090909"></rect>
                        <path d="M3.2195122,0.394736842 L7.24390244,0.394736842" id="Line" stroke-width="1.98863636" stroke-linecap="round"></path>
                        <path d="M2.41463415,10.2631579 L2.41463415,14.0310634" id="Line" stroke-width="2.38636364" stroke-linecap="square"></path>
                        <path d="M8.45121951,10.6578947 L8.45121951,14.4078947" id="Line" stroke-width="2.38636364" stroke-linecap="square"></path>
                        <rect id="Rectangle-4" stroke-width="2.38636364" stroke-linecap="round" x="15.695122" y="2.76315789" width="9.65853659" height="4.73684211" rx="1.98863636"></rect>
                        <path d="M10.6646341,7.5 C10.6646341,7.5 29.7804878,7.5 30.7865854,7.5 C31.7926829,7.5 32.597561,8.09210526 32.597561,8.88157895 L32.597561,24.6710526 C32.597561,25.2631579 32.7987805,26.4473684 30.9878049,26.4473684 C29.1768293,26.4473684 11.0670732,26.4473684 11.0670732,26.4473684" id="Path-40" stroke-width="2.38636364"></path>
                        <path d="M20.5243902,13.4210526 L20.5243902,20.5263158" id="Line" stroke-width="2.38636364" stroke-linecap="round"></path>
                        <path d="M24.1463415,16.9736842 L16.902439,16.9736842" id="Line-Copy-12" stroke-width="2.38636364" stroke-linecap="round"></path>
                    </g>
                    <g id="Group-12-Copy-2" transform="translate(9.000000, 18.000000)">
                        <circle id="Oval-441-Copy-2" stroke="#808080" stroke-width="1.59090909" fill="#FFFFFF" cx="12.4262153" cy="12.4262153" r="12.4262153"></circle>
                        <path d="M14.8324171,10 L14.8324171,3.33333333 L10,3.33333333 L10,10 L3.33333333,10 L3.33333333,14.8324171 L10,14.8324171 L10,21.3206635 L14.8324171,21.3206635 L14.8324171,14.8324171 L21.3206635,14.8324171 L21.3206635,10 L14.8324171,10 Z" id="Combined-Shape-Copy-2" fill="#65C06D"></path>
                    </g>
                </g>
            </g>
        </g>
    </g>
</svg>