<?xml version="1.0" encoding="UTF-8" standalone="no"?>
<svg width="27px" height="37px" viewBox="0 0 27 37" version="1.1" xmlns="http://www.w3.org/2000/svg" xmlns:xlink="http://www.w3.org/1999/xlink">
    <!-- Generator: Sketch 3.7.1 (28215) - http://www.bohemiancoding.com/sketch -->
    <title>DJ_alto</title>
    <desc>Created with Sketch.</desc>
    <defs></defs>
    <g id="Page-1" stroke="none" stroke-width="1" fill="none" fill-rule="evenodd">
        <g id="01_DatosJugador_Player" transform="translate(-791.000000, -351.000000)" stroke="#808080">
            <g id="Ω-Copy" transform="translate(730.000000, 308.000000)">
                <g id="Altura" transform="translate(62.000000, 44.830544)">
                    <g id="DJ_alto">
                        <path d="M23.3823529,1.81407341 L23.3823529,33.3241903" id="Line" stroke-width="3.6" stroke-linecap="round"></path>
                        <path d="M15.6855204,2.11405548 L24,2.11405548" id="Line" stroke-width="1.2" stroke-linecap="round"></path>
                        <path d="M17.8235294,16.8011777 L24,16.8011777" id="Line-Copy-7" stroke-width="1.2" stroke-linecap="round"></path>
                        <path d="M17.8235294,31.4883 L24,31.4883" id="Line-Copy-21" stroke-width="1.2" stroke-linecap="round"></path>
                        <g id="Group-2">
                            <ellipse id="Oval-14" stroke-width="2.1" cx="6.21153846" cy="4.47845963" rx="3.59615385" ry="4.47845963"></ellipse>
                            <path d="M6.46633591,10.668923 C6.46633591,10.668923 12.1778744,10.455663 11.543259,12.5882629 C11.1201821,16.6402025 9.63941284,29.8623214 9.42787437,31.5684013 C9.21633591,33.2744811 7.73556668,34.1275211 6.25479745,34.1275211 C4.77402822,34.1275211 2.6586436,33.4877411 2.6586436,31.5684013 C2.44710514,29.4358015 0.966335913,15.1473826 0.54325899,12.5882629 C-0.0913563951,10.455663 6.46633591,10.668923 6.46633591,10.668923 Z" id="Path-27" stroke-width="2.1"></path>
                            <path d="M1.13461538,18.9801384 L10.8653846,18.9801384" id="Line" stroke-width="1.26" stroke-linecap="square"></path>
                            <path d="M6.21153846,24.9514179 L6.21153846,33.9083372" id="Line" stroke-width="1.26" stroke-linecap="round"></path>
                        </g>
                    </g>
                </g>
            </g>
        </g>
    </g>
</svg>