<?xml version="1.0" encoding="UTF-8" standalone="no"?>
<svg width="50px" height="36px" viewBox="0 0 50 36" version="1.1" xmlns="http://www.w3.org/2000/svg" xmlns:xlink="http://www.w3.org/1999/xlink">
    <!-- Generator: Sketch 3.7.1 (28215) - http://www.bohemiancoding.com/sketch -->
    <title>DJ_comp_pie</title>
    <desc>Created with Sketch.</desc>
    <defs></defs>
    <g id="Page-1" stroke="none" stroke-width="1" fill="none" fill-rule="evenodd">
        <g id="04_Compara_Datos" transform="translate(-27.000000, -1099.000000)">
            <g id="1er" transform="translate(10.000000, 308.000000)">
                <g id="Ω-Copy" transform="translate(0.000000, 680.000000)">
                    <g id="Pie" transform="translate(1.000000, 89.000000)">
                        <g id="DJ_comp_pie" transform="translate(16.000000, 22.000000)">
                            <g id="soccer" fill="#808080">
                                <polygon id="Shape" points="14.9444987 11.7807793 18.5980539 6.43324721 14.1521065 2.19334917 7.94326635 4.47690295 8.14995108 10.4612066"></polygon>
                                <polygon id="Shape" points="12.5773788 22.6161804 15.9209344 26.1777173 21.7611932 23.6279334 22.7149874 18.3506542 16.9174834 17.6206431"></polygon>
                                <path d="M0.864492832,18.9288068 L0.938297032,19.0212033 C2.92496542,24.2047371 7.85649283,27.8770486 13.6292123,27.8770486 C21.1566911,27.8770486 27.2583146,21.6369686 27.2583146,13.9384962 C27.2582597,6.24047348 21.1566362,0 13.6291573,0 C6.10195322,0 0,6.24086689 0,13.9384962 C0,15.6621069 0.307966298,17.3120927 0.867460387,18.8362416 L0.864492832,18.9288068 L0.864492832,18.9288068 Z M1.67764116,13.9384794 C1.67764116,12.3100422 1.99330313,10.7562676 2.56123031,9.33372476 L5.54382665,5.54916801 L6.3168909,4.28140988 C8.33989316,2.67569382 10.8761702,1.71610131 13.6292774,1.71610131 C13.6954703,1.71610131 13.7605956,1.72026079 13.8271953,1.7209887 L15.1610184,2.22345413 L18.1009096,2.60711436 C19.9834425,3.38712123 21.6300297,4.64266089 22.8956771,6.22955529 L22.4060935,8.40974782 L24.3376865,13.9807501 L25.5716609,14.3004063 C25.3821824,20.8733239 20.1003732,26.1604415 13.6292266,26.1604415 C10.4072782,26.1604415 7.48141869,24.847761 5.32974185,22.7206018 L7.6493413,20.6828716 L5.43564036,14.8472742 L1.97205225,13.6272461 L1.89198016,16.2293661 C1.7533919,15.4874185 1.67764116,14.7220738 1.67764116,13.9384794 L1.67764116,13.9384794 Z" id="Shape"></path>
                            </g>
                            <g id="foot" transform="translate(32.577369, 21.890829) rotate(-25.000000) translate(-32.577369, -21.890829) translate(15.077369, 13.390829)" stroke="#808080" stroke-linecap="round">
                                <path d="M5.03932584,14.082113 L5.03932584,16.335251" id="Line" stroke-width="2.25"></path>
                                <path d="M8.91573034,14.082113 L8.91573034,16.335251" id="Line-Copy-8" stroke-width="2.25"></path>
                                <path d="M13.1797753,14.082113 L13.1797753,16.335251" id="Line-Copy-9" stroke-width="2.25"></path>
                                <path d="M25.1966292,14.082113 L25.1966292,16.335251" id="Line-Copy-10" stroke-width="2.25"></path>
                                <path d="M29.0730337,14.082113 L29.0730337,16.335251" id="Line-Copy-11" stroke-width="2.25"></path>
                                <path d="M25.5842697,0.187761506 C26.9410112,1.87761506 29.4606742,5.44508368 34.3061798,2.62866109 C34.1123596,9.38807531 34.1123596,9.95135983 34.1123596,10.8901674 C34.1123596,11.8289749 33.9185393,13.1433054 31.2050562,13.1433054 C28.491573,13.1433054 3.87640449,13.1433054 2.3258427,13.1433054 C0.775280899,13.1433054 -1.16292135,9.38807531 2.13202247,8.26150628 C3.48876404,7.51046025 5.62078652,7.32269874 7.75280899,6.75941423 C9.88483146,6.19612971 12.5983146,6.38389121 21.1264045,0.375523013" id="Path-31" stroke-width="1.875" stroke-linejoin="round"></path>
                            </g>
                        </g>
                    </g>
                </g>
            </g>
        </g>
    </g>
</svg>