<?xml version="1.0" encoding="UTF-8" standalone="no"?>
<svg width="52px" height="32px" viewBox="0 0 52 32" version="1.1" xmlns="http://www.w3.org/2000/svg" xmlns:xlink="http://www.w3.org/1999/xlink">
    <!-- Generator: Sketch 3.7.1 (28215) - http://www.bohemiancoding.com/sketch -->
    <title>PER_comp_silvato</title>
    <desc>Created with Sketch.</desc>
    <defs>
        <ellipse id="path-1" cx="43.3611635" cy="5.60680851" rx="5.57500673" ry="5.60680851"></ellipse>
        <mask id="mask-2" maskContentUnits="userSpaceOnUse" maskUnits="objectBoundingBox" x="0" y="0" width="11.1500135" height="11.213617" fill="white">
            <use xlink:href="#path-1"></use>
        </mask>
    </defs>
    <g id="Page-1" stroke="none" stroke-width="1" fill="none" fill-rule="evenodd">
        <g id="05__Compara_Performance" transform="translate(-268.000000, -1541.000000)" stroke="#5B5B5D">
            <g id="1er" transform="translate(10.000000, 903.000000)">
                <g id="Injury" transform="translate(0.000000, 620.000000)">
                    <g id="faltas-cometidas" transform="translate(228.776596, 0.000000)">
                        <g id="PER_comp_silvato" transform="translate(31.808511, 18.300000)">
                            <path d="M27.8750337,4.67234043 L27.8750337,9.96765957" id="Line" stroke-width="3.67021277" stroke-linecap="round"></path>
                            <use id="Oval-16" mask="url(#mask-2)" stroke-width="7.34042553" xlink:href="#path-1"></use>
                            <path d="M26.6413598,1.92433691 C27.0477085,1.88766748 27.459196,1.86893617 27.8750337,1.86893617 C35.4014566,1.86893617 41.5028279,8.00511182 41.5028279,15.5744681 C41.5028279,23.1438243 35.4014566,29.28 27.8750337,29.28 C20.3486107,29.28 14.2472394,23.1438243 14.2472394,15.5744681 C14.2472394,13.331188 14.7831305,11.213786 15.7331883,9.34468085 L3.73564511,9.34468085 C1.67250528,9.34468085 0,7.66697782 0,5.60680851 C0,3.54243862 1.67303172,1.86893617 3.73564511,1.86893617 L25.9977241,1.86893617 C26.2172046,1.86893617 26.4322643,1.88792287 26.6413598,1.92433691 Z" id="Combined-Shape" stroke-width="3.67021277"></path>
                        </g>
                    </g>
                </g>
            </g>
        </g>
    </g>
</svg>