<?xml version="1.0" encoding="UTF-8" standalone="no"?>
<svg width="70px" height="47px" viewBox="0 0 70 47" version="1.1" xmlns="http://www.w3.org/2000/svg" xmlns:xlink="http://www.w3.org/1999/xlink">
    <!-- Generator: Sketch 3.7.1 (28215) - http://www.bohemiancoding.com/sketch -->
    <title>PER_comp_golRecibido</title>
    <desc>Created with Sketch.</desc>
    <defs>
        <ellipse id="path-1" cx="7" cy="7.1627907" rx="7" ry="7.1627907"></ellipse>
        <mask id="mask-2" maskContentUnits="userSpaceOnUse" maskUnits="objectBoundingBox" x="0" y="0" width="14" height="14.3255814" fill="white">
            <use xlink:href="#path-1"></use>
        </mask>
    </defs>
    <g id="Page-1" stroke="none" stroke-width="1" fill="none" fill-rule="evenodd">
        <g id="05__Compara_Performance" transform="translate(-1260.000000, -1256.000000)">
            <g id="PER_comp_golRecibido" transform="translate(1260.000000, 1256.000000)">
                <path d="M0,0 L0,46.9991865 L2.12388854,46.9991865 L2.12388854,3.01142303 L5.79590768,5.24192599 L5.79590768,44.0650421 L6.85743534,44.0650421 L6.85743534,37.632213 L11.408506,42.0761362 L16.0378998,37.5549344 L20.6672936,42.0761362 L25.3058528,37.5467998 L29.944412,42.0761362 L34.5254788,37.6037419 L39.0732166,42.0444114 L43.7034436,37.524023 L48.3336706,42.0444114 L52.9713966,37.5167019 L57.6091226,42.0444114 L62.4326576,37.3369276 L62.4326576,44.0650421 L63.4958517,44.0650421 L63.4958517,5.34360829 L67.8761115,2.61526879 L67.8761115,47 L70,47 L70,0 L0,0 L0,0 Z M15.8587566,37.3784139 L11.4093393,41.7239088 L6.85826856,37.2799855 L6.85826856,36.947281 L11.1343753,32.7709855 L11.4101725,33.0394268 L11.6851365,32.7709855 L15.8595898,36.8472256 L15.5862923,37.112413 L15.8587566,37.3784139 L15.8587566,37.3784139 Z M11.4093393,5.73894908 L15.8587566,10.082817 L15.5862923,10.3496313 L15.8587566,10.6148188 L11.6843032,14.6902454 L11.4093393,14.4234311 L11.133542,14.6902454 L6.85743534,10.5163903 L6.85743534,10.1812455 L11.4093393,5.73894908 L11.4093393,5.73894908 Z M6.85826856,9.82983142 L6.85826856,5.52907681 L11.2643582,5.52907681 L6.85826856,9.82983142 L6.85826856,9.82983142 Z M57.6116223,32.1194053 L57.3366583,32.3870331 L53.1530395,28.3034719 L53.4171716,28.0447921 L53.1530395,27.7885527 L57.160848,23.8741909 L57.6116223,24.3142719 L58.0623966,23.8741909 L62.3343372,28.0447921 L57.8874195,32.3870331 L57.6116223,32.1194053 L57.6116223,32.1194053 Z M57.7066098,32.5643671 L57.6116223,32.6554744 L57.517468,32.5643671 L57.6116223,32.4708193 L57.7066098,32.5643671 L57.7066098,32.5643671 Z M48.335337,32.1194053 L48.060373,32.3870331 L43.8859197,28.3116065 L44.158384,28.0447921 L43.8859197,27.7804182 L47.885396,23.8741909 L48.335337,24.3142719 L48.7852781,23.8741909 L52.7947531,27.7885527 L52.530621,28.0447921 L52.7947531,28.3034719 L48.6111343,32.3870331 L48.335337,32.1194053 L48.335337,32.1194053 Z M48.4311578,32.5643671 L48.335337,32.6554744 L48.2411827,32.5643671 L48.335337,32.4708193 L48.4311578,32.5643671 L48.4311578,32.5643671 Z M39.0748831,32.1194053 L38.7999191,32.3870331 L34.7054552,28.3921389 L35.0262466,28.076517 L34.6737927,27.7316106 L38.6241087,23.8741909 L39.0748831,24.3142719 L39.5256574,23.8741909 L43.5243004,27.7804182 L43.2526693,28.0447921 L43.5243004,28.3116065 L39.349847,32.3870331 L39.0748831,32.1194053 L39.0748831,32.1194053 Z M39.1707038,32.5643671 L39.0757163,32.6554744 L38.9798955,32.5643671 L39.0757163,32.4708193 L39.1707038,32.5643671 L39.1707038,32.5643671 Z M29.9460785,32.1503167 L29.6702813,32.418758 L25.4866625,28.3343833 L25.7507945,28.0781439 L25.4866625,27.8210911 L29.4953042,23.9075427 L29.9460785,24.3476237 L30.3960196,23.9075427 L34.3146731,27.7332376 L33.9938818,28.0464191 L34.3463356,28.3929523 L30.2202093,32.4203849 L29.9460785,32.1503167 L29.9460785,32.1503167 Z M30.0402328,32.5960919 L29.9460785,32.6871993 L29.8502577,32.5960919 L29.9460785,32.5025442 L30.0402328,32.5960919 L30.0402328,32.5960919 Z M20.6681268,32.1503167 L20.3931628,32.418758 L16.2187095,28.3433314 L16.4911738,28.076517 L16.2187095,27.8113296 L20.2181857,23.9059157 L20.6681268,24.3459967 L21.1189011,23.9059157 L25.1275428,27.8202776 L24.8634107,28.076517 L25.1275428,28.3335699 L20.943924,32.4179445 L20.6681268,32.1503167 L20.6681268,32.1503167 Z M20.7639476,32.5960919 L20.6681268,32.6871993 L20.5731392,32.5960919 L20.6681268,32.5025442 L20.7639476,32.5960919 L20.7639476,32.5960919 Z M16.038733,10.7913393 L20.2131864,14.8667659 L16.038733,18.9421925 L11.8634465,14.8667659 L16.038733,10.7913393 L16.038733,10.7913393 Z M15.9462451,10.3496313 L16.038733,10.2593375 L16.1312209,10.3496313 L16.038733,10.4399252 L15.9462451,10.3496313 L15.9462451,10.3496313 Z M20.6681268,15.3117276 L20.943924,15.0432864 L25.1275428,19.1268476 L24.8634107,19.3855274 L25.1275428,19.6425802 L21.1189011,23.5561286 L20.6681268,23.1160476 L20.2181857,23.5561286 L16.2187095,19.6507148 L16.4911738,19.3855274 L16.2187095,19.118713 L20.3931628,15.0432864 L20.6681268,15.3117276 L20.6681268,15.3117276 Z M20.5731392,14.8667659 L20.6681268,14.7748451 L20.7639476,14.8667659 L20.6681268,14.9603136 L20.5731392,14.8667659 L20.5731392,14.8667659 Z M25.306686,10.7832047 L29.4903048,14.8667659 L25.306686,18.9511406 L21.1230672,14.8667659 L25.306686,10.7832047 L25.306686,10.7832047 Z M25.2225304,10.3496313 L25.306686,10.2666586 L25.3908417,10.3496313 L25.306686,10.4326041 L25.2225304,10.3496313 L25.2225304,10.3496313 Z M29.9460785,15.3117276 L30.2210425,15.0432864 L34.3155063,19.0389941 L33.994715,19.3538025 L34.3471688,19.6987089 L30.3968528,23.5561286 L29.9469117,23.1160476 L29.4961374,23.5561286 L25.4874957,19.6425802 L25.7516278,19.3855274 L25.4874957,19.1268476 L29.6711145,15.0432864 L29.9460785,15.3117276 L29.9460785,15.3117276 Z M29.8502577,14.8667659 L29.9460785,14.7748451 L30.0402328,14.8667659 L29.9460785,14.9603136 L29.8502577,14.8667659 L29.8502577,14.8667659 Z M34.5271453,10.8393333 L38.6216091,14.835041 L34.4946495,18.8641005 L30.4010189,14.8667659 L34.5271453,10.8393333 L34.5271453,10.8393333 Z M34.3530014,10.3179065 L34.4938163,10.1796185 L34.6671269,10.3496313 L34.526312,10.4879193 L34.3530014,10.3179065 L34.3530014,10.3179065 Z M39.0748831,15.2800028 L39.349847,15.0115615 L43.5259668,19.0869881 L43.2526693,19.3538025 L43.5259668,19.6189899 L39.5256574,23.5244038 L39.0748831,23.0851362 L38.6257752,23.5244038 L34.7062885,19.6987089 L35.0270798,19.3855274 L34.6746259,19.0389941 L38.8015855,15.0115615 L39.0748831,15.2800028 L39.0748831,15.2800028 Z M38.9807287,14.835041 L39.0748831,14.7431202 L39.1707038,14.835041 L39.0748831,14.9285887 L38.9807287,14.835041 L38.9807287,14.835041 Z M43.7059433,10.7596144 L47.8803966,14.835041 L43.7059433,18.9120946 L39.5306567,14.835041 L43.7059433,10.7596144 L43.7059433,10.7596144 Z M43.6126222,10.3179065 L43.7059433,10.2276126 L43.7975979,10.3179065 L43.7059433,10.4082004 L43.6126222,10.3179065 L43.6126222,10.3179065 Z M48.335337,15.2800028 L48.610301,15.0115615 L52.7939198,19.0959362 L52.5297878,19.352989 L52.7939198,19.6100419 L48.7844449,23.5235903 L48.3345038,23.0835093 L47.8845627,23.5235903 L43.8850865,19.6181765 L44.1575508,19.352989 L43.8859197,19.0861747 L48.060373,15.010748 L48.335337,15.2800028 L48.335337,15.2800028 Z M48.2403495,14.835041 L48.3345038,14.7431202 L48.4303246,14.835041 L48.3345038,14.9285887 L48.2403495,14.835041 L48.2403495,14.835041 Z M52.9730631,10.7514798 L57.1566819,14.835041 L52.9730631,18.9194157 L48.7894442,14.835041 L52.9730631,10.7514798 L52.9730631,10.7514798 Z M52.8905739,10.3179065 L52.9738963,10.2349337 L53.0588851,10.3179065 L52.9738963,10.4008792 L52.8905739,10.3179065 L52.8905739,10.3179065 Z M52.9730631,27.6136592 L48.9644213,23.6992973 L52.9730631,19.7857489 L56.982538,23.6992973 L52.9730631,27.6136592 L52.9730631,27.6136592 Z M53.0572187,28.0447921 L52.9730631,28.1285784 L52.8880742,28.0447921 L52.9730631,27.9634463 L53.0572187,28.0447921 L53.0572187,28.0447921 Z M52.9730631,19.4359618 L52.8897406,19.352989 L52.9730631,19.2700163 L53.0580519,19.352989 L52.9730631,19.4359618 L52.9730631,19.4359618 Z M48.6053017,23.6992973 L48.335337,23.9628578 L48.0653724,23.6992973 L48.335337,23.4357368 L48.6053017,23.6992973 L48.6053017,23.6992973 Z M43.7059433,27.6030842 L39.706467,23.6992973 L43.7059433,19.7938835 L47.7045863,23.6992973 L43.7059433,27.6030842 L43.7059433,27.6030842 Z M43.7975979,28.0447921 L43.7059433,28.1367129 L43.6126222,28.0447921 L43.7059433,27.9553117 L43.7975979,28.0447921 L43.7975979,28.0447921 Z M43.6126222,19.352989 L43.7059433,19.2626951 L43.7975979,19.352989 L43.7059433,19.4432829 L43.6126222,19.352989 L43.6126222,19.352989 Z M39.3456809,23.6992973 L39.0757163,23.9628578 L38.8057516,23.6992973 L39.0757163,23.4357368 L39.3456809,23.6992973 L39.3456809,23.6992973 Z M34.4946495,27.5559036 L30.575996,23.7302087 L34.5271453,19.872789 L38.4457988,23.7001108 L34.4946495,27.5559036 L34.4946495,27.5559036 Z M34.6679601,28.076517 L34.5271453,28.2148049 L34.3538346,28.0447921 L34.4946495,27.9081311 L34.6679601,28.076517 L34.6679601,28.076517 Z M34.3530014,19.352989 L34.4938163,19.2147011 L34.6671269,19.3847139 L34.526312,19.5213749 L34.3530014,19.352989 L34.3530014,19.352989 Z M30.2152099,23.7302087 L29.9452453,23.9937693 L29.6744474,23.7302087 L29.9452453,23.4666482 L30.2152099,23.7302087 L30.2152099,23.7302087 Z M25.306686,27.6429437 L21.2980443,23.7293953 L25.306686,19.8158469 L29.3153278,23.7293953 L25.306686,27.6429437 L25.306686,27.6429437 Z M25.3908417,28.076517 L25.306686,28.1603032 L25.2225304,28.076517 L25.306686,27.9935443 L25.3908417,28.076517 L25.3908417,28.076517 Z M25.2225304,19.3847139 L25.306686,19.3017411 L25.3908417,19.3847139 L25.306686,19.4660597 L25.2225304,19.3847139 L25.2225304,19.3847139 Z M20.9389247,23.7302087 L20.6681268,23.9937693 L20.3981621,23.7302087 L20.6681268,23.4666482 L20.9389247,23.7302087 L20.9389247,23.7302087 Z M16.038733,19.2927931 L16.1312209,19.3847139 L16.038733,19.4733809 L15.9462451,19.3847139 L16.038733,19.2927931 L16.038733,19.2927931 Z M16.038733,19.8264218 L20.0382093,23.7302087 L16.038733,27.6356226 L12.0392568,23.7302087 L16.038733,19.8264218 L16.038733,19.8264218 Z M16.038733,27.9870366 L16.1312209,28.076517 L16.038733,28.1668109 L15.9462451,28.076517 L16.038733,27.9870366 L16.038733,27.9870366 Z M16.038733,28.5182249 L20.2131864,32.5960919 L16.038733,36.6715186 L11.8634465,32.5960919 L16.038733,28.5182249 L16.038733,28.5182249 Z M25.306686,28.5109038 L29.4903048,32.5952785 L25.306686,36.6788397 L21.1230672,32.5952785 L25.306686,28.5109038 L25.306686,28.5109038 Z M34.5271453,28.5670324 L38.6216091,32.5643671 L34.4946495,36.5909862 L30.4010189,32.5960919 L34.5271453,28.5670324 L34.5271453,28.5670324 Z M43.7059433,28.488127 L47.8803966,32.5643671 L43.7059433,36.6397937 L39.5306567,32.5643671 L43.7059433,28.488127 L43.7059433,28.488127 Z M52.9730631,28.4783655 L57.1566819,32.5627401 L52.9730631,36.6471148 L48.7894442,32.5627401 L52.9730631,28.4783655 L52.9730631,28.4783655 Z M57.3408244,23.6992973 L57.6107891,23.4357368 L57.8807537,23.6992973 L57.6107891,23.9628578 L57.3408244,23.6992973 L57.3408244,23.6992973 Z M57.6116223,23.0835093 L57.160848,23.5235903 L53.1530395,19.6100419 L53.4171716,19.352989 L53.1530395,19.0959362 L57.3366583,15.0115615 L57.6116223,15.2800028 L57.8874195,15.0115615 L62.3343372,19.3538025 L58.0623966,23.5244038 L57.6116223,23.0835093 L57.6116223,23.0835093 Z M57.5166347,14.835041 L57.6107891,14.7431202 L57.7057766,14.835041 L57.6107891,14.9285887 L57.5166347,14.835041 L57.5166347,14.835041 Z M57.6116223,14.3917062 L57.3366583,14.6601475 L53.1530395,10.5765862 L53.4171716,10.3179065 L53.1530395,10.0608536 L57.6116223,5.7072242 L62.3343372,10.3179065 L57.8874195,14.6601475 L57.6116223,14.3917062 L57.6116223,14.3917062 Z M52.9730631,9.88433314 L48.5119806,5.52907681 L57.4341455,5.52907681 L52.9730631,9.88433314 L52.9730631,9.88433314 Z M52.7922534,10.0608536 L52.5289545,10.3179065 L52.7922534,10.5765862 L48.6086346,14.6601475 L48.3336706,14.3917062 L48.0587066,14.6601475 L43.8842533,10.5847208 L44.1567176,10.3179065 L43.8842533,10.052719 L48.3336706,5.7072242 L52.7922534,10.0608536 L52.7922534,10.0608536 Z M43.7059433,9.87619855 L39.2523598,5.52907681 L48.1578603,5.52907681 L43.7059433,9.87619855 L43.7059433,9.87619855 Z M43.5243004,10.052719 L43.2526693,10.3179065 L43.5243004,10.5847208 L39.349847,14.6601475 L39.0748831,14.3917062 L38.7999191,14.6601475 L34.704622,10.6628128 L35.0254133,10.3496313 L34.6729595,10.004725 L39.0732166,5.7072242 L43.5243004,10.052719 L43.5243004,10.052719 Z M34.4946495,9.82820451 L30.0910595,5.52907681 L38.8982395,5.52907681 L34.4946495,9.82820451 L34.4946495,9.82820451 Z M34.3146731,10.004725 L33.9938818,10.3179065 L34.3463356,10.6628128 L30.2202093,14.6902454 L29.9452453,14.4234311 L29.669448,14.6902454 L25.4858292,10.6066842 L25.7499613,10.3496313 L25.4858292,10.0909516 L29.9452453,5.73894908 L34.3146731,10.004725 L34.3146731,10.004725 Z M25.306686,9.91605802 L20.8131078,5.52907681 L29.8002643,5.52907681 L25.306686,9.91605802 L25.306686,9.91605802 Z M25.1267096,10.0909516 L24.8625775,10.3496313 L25.1267096,10.6066842 L20.9430908,14.6902454 L20.6672936,14.4234311 L20.3923296,14.6902454 L16.2178762,10.6148188 L16.4903406,10.3496313 L16.2178762,10.082817 L20.6672936,5.73894908 L25.1267096,10.0909516 L25.1267096,10.0909516 Z M16.038733,9.90792343 L11.5543203,5.52907681 L20.5231458,5.52907681 L16.038733,9.90792343 L16.038733,9.90792343 Z M11.5043268,14.8667659 L11.4093393,14.9603136 L11.3143517,14.8667659 L11.4093393,14.7748451 L11.5043268,14.8667659 L11.5043268,14.8667659 Z M10.9543988,14.8667659 L6.85826856,18.8657274 L6.85826856,10.8678044 L10.9543988,14.8667659 L10.9543988,14.8667659 Z M11.133542,15.0432864 L11.4093393,15.3117276 L11.6843032,15.0432864 L15.8587566,19.118713 L15.5862923,19.3847139 L15.8587566,19.6499013 L11.8592803,23.5553152 L11.4093393,23.1152342 L10.9585649,23.5553152 L6.85826856,19.5514729 L6.85826856,19.216328 L11.133542,15.0432864 L11.133542,15.0432864 Z M11.6793039,23.7302087 L11.4093393,23.9937693 L11.1393746,23.7302087 L11.4093393,23.4666482 L11.6793039,23.7302087 L11.6793039,23.7302087 Z M10.7785885,23.7302087 L6.85743534,27.5591575 L6.85743534,19.9028869 L10.7785885,23.7302087 L10.7785885,23.7302087 Z M10.9585649,23.9059157 L11.4093393,24.3459967 L11.8592803,23.9059157 L15.8587566,27.8113296 L15.5862923,28.076517 L15.8587566,28.3433314 L11.6843032,32.418758 L11.4093393,32.1503167 L11.133542,32.418758 L6.85743534,28.243276 L6.85743534,27.909758 L10.9585649,23.9059157 L10.9585649,23.9059157 Z M11.5043268,32.5960919 L11.4093393,32.6871993 L11.3143517,32.5960919 L11.4093393,32.5025442 L11.5043268,32.5960919 L11.5043268,32.5960919 Z M10.9543988,32.5960919 L6.85826856,36.5934266 L6.85826856,28.5955035 L10.9543988,32.5960919 L10.9543988,32.5960919 Z M16.038733,37.2035204 L15.9462451,37.1132265 L16.038733,37.0237461 L16.1312209,37.1132265 L16.038733,37.2035204 L16.038733,37.2035204 Z M25.1267096,37.3694659 L20.6681268,41.7239088 L16.2187095,37.3784139 L16.4911738,37.1132265 L16.2187095,36.8472256 L20.3931628,32.7709855 L20.6681268,33.0394268 L20.943924,32.7709855 L25.1275428,36.8553602 L24.8634107,37.112413 L25.1267096,37.3694659 L25.1267096,37.3694659 Z M25.306686,37.1929454 L25.2225304,37.1115996 L25.306686,37.0286268 L25.3908417,37.1115996 L25.306686,37.1929454 L25.306686,37.1929454 Z M29.9460785,41.7230953 L25.4866625,37.3694659 L25.7507945,37.112413 L25.4866625,36.8553602 L29.6702813,32.7709855 L29.9460785,33.0394268 L30.2210425,32.7709855 L34.3155063,36.7683201 L33.994715,37.0815016 L34.3471688,37.4272214 L29.9460785,41.7230953 L29.9460785,41.7230953 Z M34.5271453,37.250701 L34.3538346,37.0806882 L34.4946495,36.9424002 L34.6679601,37.112413 L34.5271453,37.250701 L34.5271453,37.250701 Z M43.5243004,37.3475025 L39.0748831,41.6913704 L34.7054552,37.4255945 L35.0262466,37.112413 L34.6737927,36.7675067 L38.7999191,32.7400741 L39.0748831,33.0068884 L39.349847,32.7400741 L43.5259668,36.8155007 L43.2526693,37.0806882 L43.5243004,37.3475025 L43.5243004,37.3475025 Z M43.7059433,37.1717955 L43.6126222,37.0815016 L43.7059433,36.9920212 L43.7975979,37.0815016 L43.7059433,37.1717955 L43.7059433,37.1717955 Z M52.7922534,37.3385545 L48.3336706,41.6929973 L43.8842533,37.348316 L44.1567176,37.0815016 L43.8842533,36.8171276 L48.0587066,32.7408875 L48.3336706,33.0077019 L48.6086346,32.7408875 L52.7922534,36.8252622 L52.5289545,37.0815016 L52.7922534,37.3385545 L52.7922534,37.3385545 Z M52.9730631,37.1628475 L52.8897406,37.0798747 L52.9730631,36.9985289 L53.0580519,37.0798747 L52.9730631,37.1628475 L52.9730631,37.1628475 Z M57.6116223,41.6913704 L53.1530395,37.337741 L53.4171716,37.0806882 L53.1530395,36.8236353 L57.3366583,32.7400741 L57.6116223,33.0068884 L57.8874195,32.7400741 L62.3343372,37.0806882 L57.6116223,41.6913704 L57.6116223,41.6913704 Z M62.4351573,36.8277026 L58.0673959,32.5643671 L62.4351573,28.3002181 L62.4351573,36.8277026 L62.4351573,36.8277026 Z M62.4351573,27.79262 L58.242373,23.6992973 L62.4343241,19.6051611 L62.4343241,27.79262 L62.4351573,27.79262 Z M62.4351573,19.09919 L58.0673959,14.835041 L62.4351573,10.572519 L62.4351573,19.09919 L62.4351573,19.09919 Z M62.4351573,10.0649209 L57.789099,5.52907681 L62.4351573,5.52907681 L62.4351573,10.0649209 L62.4351573,10.0649209 Z M62.8892645,4.49191734 L6.57330588,4.49191734 L2.59132733,2.07350549 L66.7737558,2.07350549 L62.8892645,4.49191734 L62.8892645,4.49191734 Z" id="Shape" fill="#BCBCBC"></path>
                <g id="Goals" transform="translate(52.562178, 19.026279) rotate(-330.000000) translate(-52.562178, -19.026279) translate(45.562178, 8.026279)">
                    <use id="Oval-6" stroke="#5B5A5F" mask="url(#mask-2)" stroke-width="3" fill="#FFFFFF" xlink:href="#path-1"></use>
                    <path d="M5.75135174,14.2119571 C5.02472031,14.0780781 4.33704866,13.8294466 3.70689773,13.4850552 C4.82167577,12.216374 5.5,10.538082 5.5,8.69767442 C5.5,5.95995348 3.99897593,3.5809686 1.79310227,2.37540994 C2.27070423,1.8318716 2.82841746,1.36351752 3.44722174,0.989810248 C4.44497765,3.69997298 7.00245924,5.62790698 10,5.62790698 C11.2968513,5.62790698 12.5113341,5.267044 13.5527783,4.63809673 C13.8263964,5.38131423 13.9827169,6.18335848 13.9986483,7.02060107 C13.5934731,6.94594913 13.1761844,6.90697674 12.75,6.90697674 C8.88400675,6.90697674 5.75,10.1138674 5.75,14.0697674 C5.75,14.1172734 5.75045197,14.1646714 5.75135174,14.2119571 Z" id="Combined-Shape" fill="#5B5A5F"></path>
                    <path d="M4.75,15.4767442 L4.75,21.872093" id="Line" stroke="#5B5A5F" stroke-width="1.5" stroke-linecap="round"></path>
                    <path d="M7,15.4767442 L7,19.4418605" id="Line-Copy" stroke="#5B5A5F" stroke-width="1.5" stroke-linecap="round"></path>
                    <path d="M9.25,15.4767442 L9.25,17.9069767" id="Line-Copy-2" stroke="#5B5A5F" stroke-width="1.5" stroke-linecap="round"></path>
                </g>
            </g>
        </g>
    </g>
</svg>