<?xml version="1.0" encoding="UTF-8" standalone="no"?>
<svg width="29px" height="29px" viewBox="0 0 29 29" version="1.1" xmlns="http://www.w3.org/2000/svg" xmlns:xlink="http://www.w3.org/1999/xlink">
    <!-- Generator: Sketch 3.7.1 (28215) - http://www.bohemiancoding.com/sketch -->
    <title>PER_comp_check</title>
    <desc>Created with Sketch.</desc>
    <defs></defs>
    <g id="Page-1" stroke="none" stroke-width="1" fill="none" fill-rule="evenodd">
        <g id="06_Compara_Contratos" transform="translate(-422.000000, -1646.000000)" fill="#EC1C2D">
            <g id="Group" transform="translate(9.000000, 900.000000)">
                <g id="bonos" transform="translate(1.000000, 687.000000)">
                    <g id="4" transform="translate(15.000000, 59.000000)">
                        <g id="PER_comp_check" transform="translate(397.000000, 0.000000)">
                            <g id="Capa_1">
                                <path d="M14.3445512,0 C6.4222066,0 0,6.4222317 0,14.3482759 C0,22.2699904 6.4222066,28.6965517 14.3445512,28.6965517 C22.2672565,28.6965517 28.6887417,22.2699904 28.6887417,14.3482759 C28.688381,6.4222317 22.2668958,0 14.3445512,0 L14.3445512,0 Z M19.755364,22.4641006 L14.3445512,17.0535508 L8.93518124,22.4641006 L6.2306766,19.7588257 L11.6396859,14.3464719 L6.2306766,8.93592205 L8.93518124,6.23064715 L14.3441905,11.641197 L19.7528391,6.23281195 L22.4573437,8.93808685 L17.0486952,14.3464719 L22.4591472,19.7588257 L19.755364,22.4641006 L19.755364,22.4641006 Z" id="Shape"></path>
                            </g>
                        </g>
                    </g>
                </g>
            </g>
        </g>
    </g>
</svg>