<?xml version="1.0" encoding="UTF-8" standalone="no"?>
<svg width="64px" height="52px" viewBox="0 0 64 52" version="1.1" xmlns="http://www.w3.org/2000/svg" xmlns:xlink="http://www.w3.org/1999/xlink">
    <!-- Generator: Sketch 3.7.1 (28215) - http://www.bohemiancoding.com/sketch -->
    <title>PER_comp_asis</title>
    <desc>Created with Sketch.</desc>
    <defs></defs>
    <g id="Page-1" stroke="none" stroke-width="1" fill="none" fill-rule="evenodd">
        <g id="05__Compara_Performance" transform="translate(-290.000000, -1254.000000)">
            <g id="1er" transform="translate(10.000000, 903.000000)">
                <g id="Tantos-Copy" transform="translate(0.000000, 320.000000)">
                    <g id="PER_comp_asis" transform="translate(282.000000, 33.000000)">
                        <g id="Career" transform="translate(19.000000, 0.000000)">
                            <path d="M20,22.5 C20,22.5 36.5,22.2933333 38.75,22.2933333 C41,22.2933333 41,20.2666667 41,19 L41,6.84 C40.25,4.05333333 37.25,1.01333333 31.5,0 C28.75,1.52 26.75,3.54666667 20.5,3.54666667" id="Path-12" stroke="#5A595E" stroke-width="3" fill="#D8D8D8"></path>
                            <path d="M0,22.5 C0,22.5 19,22.2933333 21.25,22.2933333 C23.5,22.2933333 23.5,20.2666667 23.5,19 L23.5,6.84 C22.75,4.05333333 19.75,1.01333333 14,0 C11.25,1.52 9.25,3.54666667 3,3.54666667" id="Path-12-Copy" stroke="#5A595E" stroke-width="3" fill="#D8D8D8" transform="translate(11.750000, 11.250000) scale(-1, 1) translate(-11.750000, -11.250000) "></path>
                            <path d="M9,13 L9,33.52 C9,36.0533333 10.25,36.56 12.5,36.56 C14.75,36.56 26.75,36.56 30,36.56 C32.25,36.56 33,35.04 33,32.2533333 L33,13" id="Path-11" stroke="#5A595E" stroke-width="2.5" stroke-linecap="round" fill="#DBDBDB"></path>
                            <path d="M14.5,17.2266667 L27.5,17.2266667" id="Path-9" stroke="#5B5B5D" stroke-width="3" stroke-linecap="round" fill="#D8D8D8"></path>
                            <path d="M14.5,12.6666667 L27.5,12.6666667" id="Path-9-Copy" stroke="#5B5B5D" stroke-width="3" stroke-linecap="round" fill="#D8D8D8"></path>
                        </g>
                        <g id="Career-Copy-2" transform="translate(0.000000, 12.000000)">
                            <path d="M20,22.5 C20,22.5 36.5,22.2933333 38.75,22.2933333 C41,22.2933333 41,20.2666667 41,19 L41,6.84 C40.25,4.05333333 37.25,1.01333333 31.5,0 C28.75,1.52 26.75,3.54666667 20.5,3.54666667" id="Path-12" stroke="#5A595E" stroke-width="3" fill="#D8D8D8"></path>
                            <path d="M0,22.5 C0,22.5 19,22.2933333 21.25,22.2933333 C23.5,22.2933333 23.5,20.2666667 23.5,19 L23.5,6.84 C22.75,4.05333333 19.75,1.01333333 14,0 C11.25,1.52 9.25,3.54666667 3,3.54666667" id="Path-12-Copy" stroke="#5A595E" stroke-width="3" fill="#D8D8D8" transform="translate(11.750000, 11.250000) scale(-1, 1) translate(-11.750000, -11.250000) "></path>
                            <path d="M9,13 L9,33.52 C9,36.0533333 10.25,36.56 12.5,36.56 C14.75,36.56 26.75,36.56 30,36.56 C32.25,36.56 33,35.04 33,32.2533333 L33,13" id="Path-11" stroke="#5A595E" stroke-width="2.5" stroke-linecap="round" fill="#DBDBDB"></path>
                            <path d="M14.5,17.2266667 L27.5,17.2266667" id="Path-9" stroke="#5B5B5D" stroke-width="3" stroke-linecap="round" fill="#D8D8D8"></path>
                            <path d="M14.5,12.6666667 L27.5,12.6666667" id="Path-9-Copy" stroke="#5B5B5D" stroke-width="3" stroke-linecap="round" fill="#D8D8D8"></path>
                        </g>
                    </g>
                </g>
            </g>
        </g>
    </g>
</svg>