<?xml version="1.0" encoding="UTF-8" standalone="no"?>
<svg width="67px" height="41px" viewBox="0 0 67 41" version="1.1" xmlns="http://www.w3.org/2000/svg" xmlns:xlink="http://www.w3.org/1999/xlink">
    <!-- Generator: Sketch 3.7.1 (28215) - http://www.bohemiancoding.com/sketch -->
    <title>PER_silvato</title>
    <desc>Created with Sketch.</desc>
    <defs>
        <ellipse id="path-1" cx="56.5580393" cy="7.35319149" rx="7.27174791" ry="7.35319149"></ellipse>
        <mask id="mask-2" maskContentUnits="userSpaceOnUse" maskUnits="objectBoundingBox" x="0" y="0" width="14.5434958" height="14.706383" fill="white">
            <use xlink:href="#path-1"></use>
        </mask>
    </defs>
    <g id="Page-1" stroke="none" stroke-width="1" fill="none" fill-rule="evenodd">
        <g id="02_Performance_Player" transform="translate(-1067.000000, -942.000000)" stroke="#5B5B5D">
            <g id="Injury" transform="translate(730.000000, 918.000000)">
                <g id="faltas-cometidas" transform="translate(298.404255, 0.000000)">
                    <g id="PER_silvato" transform="translate(41.489362, 24.000000)">
                        <path d="M36.3587396,6.12765957 L36.3587396,13.0723404" id="Line" stroke-width="4.78723404" stroke-linecap="round"></path>
                        <use id="Oval-16" mask="url(#mask-2)" stroke-width="9.57446809" xlink:href="#path-1"></use>
                        <path d="M34.728248,2.52567092 C35.2652039,2.47629377 35.809058,2.45106383 36.3587396,2.45106383 C46.175813,2.45106383 54.1341234,10.4985073 54.1341234,20.4255319 C54.1341234,30.3525565 46.175813,38.4 36.3587396,38.4 C26.5416662,38.4 18.5833558,30.3525565 18.5833558,20.4255319 C18.5833558,17.4835253 19.2823442,14.7066046 20.52155,12.2553191 L4.91185012,12.2553191 C2.19911021,12.2553191 0,10.0550529 0,7.35319149 C0,4.64582114 2.19624389,2.45106383 4.91185012,2.45106383 L33.8708054,2.45106383 C34.1632949,2.45106383 34.4498133,2.47664259 34.728248,2.52567092 Z" id="Combined-Shape" stroke-width="4.78723404"></path>
                    </g>
                </g>
            </g>
        </g>
    </g>
</svg>