<?xml version="1.0" encoding="UTF-8" standalone="no"?>
<svg width="35px" height="34px" viewBox="0 0 35 34" version="1.1" xmlns="http://www.w3.org/2000/svg" xmlns:xlink="http://www.w3.org/1999/xlink">
    <!-- Generator: Sketch 3.7.1 (28215) - http://www.bohemiancoding.com/sketch -->
    <title>PLANTEL_orden</title>
    <desc>Created with Sketch.</desc>
    <defs></defs>
    <g id="Page-1" stroke="none" stroke-width="1" fill="none" fill-rule="evenodd">
        <g id="00_Plantel" transform="translate(-785.000000, -333.000000)" fill="#4A4A4A">
            <g id="PLANTEL_orden" transform="translate(785.000000, 333.000000)">
                <path d="M33.7417671,29.1464426 L19.3121336,29.1464426 C18.6483306,29.1464426 18.1096498,29.6891791 18.1096498,30.3591858 C18.1096498,31.0291351 18.6483306,31.5718716 19.3121336,31.5718716 L33.7417671,31.5367804 C34.40557,31.5367804 34.9442508,31.0291351 34.9442508,30.3591858 C34.9441938,29.6891791 34.4067101,29.1464426 33.7417671,29.1464426 L33.7417671,29.1464426 Z M16.9072231,2.4627027 L33.7417671,2.46029054 C34.40557,2.46029054 34.9442508,1.91996622 34.9442508,1.24995946 C34.9442508,0.579952703 34.40557,0.0372162162 33.7417671,0.0372162162 L16.9072231,0.0372162162 C16.2434202,0.0372162162 15.7047394,0.579952703 15.7047394,1.24995946 C15.7047394,1.91996622 16.2434202,2.4627027 16.9072231,2.4627027 L16.9072231,2.4627027 Z M18.935798,22.2117061 C18.4643811,21.7343277 17.6996254,21.7343277 17.2282655,22.2117061 L10.8948616,29.5547297 L10.8948616,0.0372162162 L8.48995114,0.0372162162 L8.48995114,29.5983209 L2.11801303,22.2117061 C1.64665309,21.7343277 0.881840391,21.7343277 0.410537459,22.2117061 C-0.0608794788,22.6890845 -0.0608794788,23.4620101 0.410537459,23.938125 L8.75803746,33.6169831 C9.00936482,33.8714088 9.34363192,33.9792095 9.67191368,33.9622669 C10.0013355,33.9792095 10.3344625,33.8714088 10.5857329,33.6169831 L18.9332899,23.938125 C19.407158,23.4620101 19.407158,22.6890845 18.935798,22.2117061 L18.935798,22.2117061 Z M33.7417671,7.31482432 L16.9072231,7.31482432 C16.2434202,7.31482432 15.7047394,7.85761824 15.7047394,8.52756757 C15.7047394,9.19757432 16.2434202,9.72939865 16.9072231,9.72939865 L33.7417671,9.72939865 C34.40557,9.72939865 34.9442508,9.19751689 34.9442508,8.52756757 C34.9441938,7.85761824 34.4067101,7.31482432 33.7417671,7.31482432 L33.7417671,7.31482432 Z M33.7417671,14.5912264 L16.9072231,14.5912264 C16.2434202,14.5912264 15.7047394,15.1340203 15.7047394,15.8039696 C15.7047394,16.4739764 16.2434202,16.9973007 16.9072231,16.9973007 L33.7417671,17.0167128 C34.40557,17.0167128 34.9442508,16.4739189 34.9442508,15.8039696 C34.9441938,15.1352264 34.4067101,14.5912264 33.7417671,14.5912264 L33.7417671,14.5912264 Z M33.7417671,21.8688345 L24.1220114,21.8688345 C23.4582085,21.8688345 22.9195277,22.4115709 22.9195277,23.0815203 C22.9195277,23.751527 23.4582085,24.2676149 24.1220114,24.2676149 L33.7417671,24.2676149 C34.40557,24.2676149 34.9442508,23.751527 34.9442508,23.0815203 C34.9441938,22.4116284 34.4067101,21.8688345 33.7417671,21.8688345 L33.7417671,21.8688345 Z" id="Shape"></path>
            </g>
        </g>
    </g>
</svg>