<?xml version="1.0" encoding="UTF-8" standalone="no"?>
<svg width="38px" height="35px" viewBox="0 0 38 35" version="1.1" xmlns="http://www.w3.org/2000/svg" xmlns:xlink="http://www.w3.org/1999/xlink">
    <!-- Generator: Sketch 3.7.1 (28215) - http://www.bohemiancoding.com/sketch -->
    <title>PLANTEL_filtro</title>
    <desc>Created with Sketch.</desc>
    <defs></defs>
    <g id="Page-1" stroke="none" stroke-width="1" fill="none" fill-rule="evenodd">
        <g id="00_Plantel" transform="translate(-844.000000, -332.000000)" fill="#4A4A4A">
            <g id="PLANTEL_filtro" transform="translate(844.000000, 332.000000)">
                <path d="M37.7716674,0.701264108 C37.5124858,0.275970655 37.0413523,0.0073476298 36.5229891,0.0073476298 L1.41947046,0.0073476298 C0.924722101,0.0073476298 0.45350547,0.253611738 0.194407002,0.678905192 C-0.0646914661,1.10419865 -0.0647746171,1.59672686 0.194407002,2.02202032 L12.139046,21.6315011 L12.139046,33.5852257 C12.139046,34.3239391 12.775151,34.9283409 13.5526127,34.9283409 L22.9763632,34.9283409 C23.7538249,34.9283409 24.38993,34.3239391 24.38993,33.5852257 L24.38993,21.6986569 L37.7009891,2.06681716 C37.9837024,1.66388262 38.0072341,1.14899549 37.7716674,0.701264108 L37.7716674,0.701264108 Z M21.7983632,20.5793679 C21.6570066,20.8031941 21.5627965,21.0494582 21.5627965,21.3180813 L21.5627965,32.2421106 L14.9661794,32.2421106 L14.9661794,21.2733634 C14.9661794,21.0270993 14.8955011,20.8032731 14.7776761,20.6018059 L3.86968053,2.69357788 L33.9315055,2.69357788 L21.7983632,20.5793679 L21.7983632,20.5793679 Z" id="Shape"></path>
            </g>
        </g>
    </g>
</svg>