<?xml version="1.0" encoding="UTF-8" standalone="no"?>
<svg width="17px" height="20px" viewBox="0 0 17 20" version="1.1" xmlns="http://www.w3.org/2000/svg" xmlns:xlink="http://www.w3.org/1999/xlink">
    <!-- Generator: Sketch 3.7.1 (28215) - http://www.bohemiancoding.com/sketch -->
    <title>REP_comp_offside</title>
    <desc>Created with Sketch.</desc>
    <defs></defs>
    <g id="Page-1" stroke="none" stroke-width="1" fill="none" fill-rule="evenodd">
        <g id="05__Compara_Performance" transform="translate(-427.000000, -1670.000000)" fill="#4A4A4A">
            <g id="1er" transform="translate(10.000000, 903.000000)">
                <g id="Offsides" transform="translate(0.000000, 752.000000)">
                    <g id="REP_comp_offside" transform="translate(417.000000, 15.000000)">
                        <path d="M16.2570469,0.000107209659 C14.2429453,0.0342756762 12.3216354,0.337385827 10.2875234,0.658249758 C8.14419531,0.996392307 5.92790885,1.34602514 3.51191667,1.37704026 C3.13773958,1.38183507 2.83333333,1.68105753 2.83333333,2.0440381 L2.08072917,2.07038799 L2.08072917,1.70321736 C2.08072917,1.14347654 1.61402604,0.68809857 1.04036458,0.68809857 C0.466703125,0.68809857 0,1.14347654 0,1.70321736 L0,18.9818351 C0,19.5415759 0.466703125,19.9969539 1.04036458,19.9969539 C1.61402604,19.9969539 2.08072917,19.5415759 2.08072917,18.9818351 L2.08072917,11.7055932 L2.83333333,11.7055932 C2.83333333,11.9032174 2.90633594,12.0730662 3.03888281,12.2006256 C3.16890625,12.325766 3.33979167,12.3943621 3.52108073,12.3943621 C5.99161458,12.3618351 8.2293724,12.0088329 10.3934635,11.6674074 C12.4075208,11.3496968 14.3098828,11.0495673 16.2806875,11.0172562 C16.6529167,11.0111223 16.9557734,10.712159 16.9557734,10.35082 L16.9557734,0.672591011 C16.9557734,0.490776756 16.8823281,0.320236799 16.7490286,0.192375028 C16.6164818,0.065290795 16.4408151,-0.00308933462 16.2570469,0.000107209659 Z M2.08077344,11.057645 L2.08077344,2.71833615 L2.8333776,2.71833615 L2.8333776,11.057645 L2.08077344,11.057645 L2.08077344,11.057645 Z M15.9628996,5.61979937 C13.0609752,5.61979939 9.89461983,6.19999996 9.89461983,6.19999996 C9.89461983,6.19999996 10.0491346,9.81247355 10.1585366,10.8 C8.12459265,11.120872 6.1308475,11.4401892 3.83860092,11.4704416 C3.81966995,11.4604669 3.81563134,8.49072908 3.81563134,6.8 C4.97560976,6.79999996 9.95121952,6.19999996 9.95121952,6.19999996 C9.95121952,6.19999996 9.68377912,3.79999996 9.68377892,1.64919954 C9.91308023,1.61348038 10.1413349,1.57746906 10.3687355,1.54159237 C12.2787447,1.24030021 14.0828666,0.955714578 15.9515642,0.92398449 C15.9693593,0.933548669 15.9664692,4.06232686 15.9628996,5.61979937 Z" id="Shape"></path>
                    </g>
                </g>
            </g>
        </g>
    </g>
</svg>