<?xml version="1.0" encoding="UTF-8" standalone="no"?>
<svg width="19px" height="19px" viewBox="0 0 19 19" version="1.1" xmlns="http://www.w3.org/2000/svg" xmlns:xlink="http://www.w3.org/1999/xlink">
    <!-- Generator: Sketch 3.7.1 (28215) - http://www.bohemiancoding.com/sketch -->
    <title>CONT_noCheck</title>
    <desc>Created with Sketch.</desc>
    <defs></defs>
    <g id="Page-1" stroke="none" stroke-width="1" fill="none" fill-rule="evenodd">
        <g id="04_Contratos" transform="translate(-67.000000, -1071.000000)" fill="#EC1C2D">
            <g id="bonos" transform="translate(10.000000, 980.000000)">
                <g id="4" transform="translate(28.000000, 45.000000)">
                    <g id="CONT_noCheck" transform="translate(29.000000, 46.000000)">
                        <g id="Capa_1">
                            <path d="M9.50011944,0 C4.25330349,0 0,4.25216254 0,9.5 C0,14.7449708 4.25330349,19 9.50011944,19 C14.7471743,19 19,14.7449708 19,9.5 C18.9997611,4.25216254 14.7469354,0 9.50011944,0 L9.50011944,0 Z M13.0835963,14.8734912 L9.50011944,11.2911637 L5.9175981,14.8734912 L4.12645687,13.0823275 L7.70873933,9.49880557 L4.12645687,5.91647807 L5.9175981,4.12531432 L9.49988056,7.70764182 L13.0819241,4.12674764 L14.8730654,5.91791139 L11.2910218,9.49880557 L14.8742598,13.0823275 L13.0835963,14.8734912 L13.0835963,14.8734912 Z" id="Shape"></path>
                        </g>
                    </g>
                </g>
            </g>
        </g>
    </g>
</svg>