<?xml version="1.0" encoding="UTF-8" standalone="no"?>
<svg width="10px" height="10px" viewBox="0 0 10 10" version="1.1" xmlns="http://www.w3.org/2000/svg" xmlns:xlink="http://www.w3.org/1999/xlink">
    <!-- Generator: Sketch 3.7.1 (28215) - http://www.bohemiancoding.com/sketch -->
    <title>CONT_comp_unCheck</title>
    <desc>Created with Sketch.</desc>
    <defs></defs>
    <g id="Page-1" stroke="none" stroke-width="1" fill="none" fill-rule="evenodd">
        <g id="04_Contratos-Compara" transform="translate(-105.000000, -689.000000)" fill="#EC1C2D">
            <g id="Contain" transform="translate(10.000000, 133.000000)">
                <g id="line-1" transform="translate(0.000000, 191.000000)">
                    <g id="bonos" transform="translate(0.000000, 336.000000)">
                        <g id="4" transform="translate(5.000000, 27.000000)">
                            <g id="CONT_comp_unCheck" transform="translate(90.000000, 2.000000)">
                                <g id="Capa_1">
                                    <path d="M4.78151707,0 C2.14073553,0 0,2.1407439 0,4.78275862 C0,7.42333014 2.14073553,9.56551724 4.78151707,9.56551724 C7.42241884,9.56551724 9.56291391,7.42333014 9.56291391,4.78275862 C9.56279368,2.1407439 7.42229861,0 4.78151707,0 L4.78151707,0 Z M6.58512132,7.48803353 L4.78151707,5.68451692 L2.97839375,7.48803353 L2.0768922,6.58627522 L3.87989529,4.78215729 L2.0768922,2.97864068 L2.97839375,2.07688238 L4.78139684,3.88039899 L6.5842797,2.07760398 L7.48578124,2.97936228 L5.68289838,4.78215729 L7.48638241,6.58627522 L6.58512132,7.48803353 L6.58512132,7.48803353 Z" id="Shape"></path>
                                </g>
                            </g>
                        </g>
                    </g>
                </g>
            </g>
        </g>
    </g>
</svg>