<?xml version="1.0" encoding="UTF-8" standalone="no"?>
<svg width="24px" height="29px" viewBox="0 0 24 29" version="1.1" xmlns="http://www.w3.org/2000/svg" xmlns:xlink="http://www.w3.org/1999/xlink">
    <!-- Generator: Sketch 3.7.1 (28215) - http://www.bohemiancoding.com/sketch -->
    <title>DJ_apto</title>
    <desc>Created with Sketch.</desc>
    <defs></defs>
    <g id="Page-1" stroke="none" stroke-width="1" fill="none" fill-rule="evenodd">
        <g id="02_Datos-Jugador_A" transform="translate(-24.000000, -529.000000)">
            <g id="Datos-Medicos" transform="translate(10.000000, 513.000000)">
                <g id="DJ_apto" transform="translate(15.000000, 17.000000)">
                    <g id="icon_medic" stroke="#808080">
                        <rect id="Rectangle-8" stroke-width="1.25" x="0" y="9.25" width="6.91463415" height="9.75" rx="1"></rect>
                        <rect id="Rectangle-8-Copy" stroke-width="1.25" x="0" y="2.5" width="6.91463415" height="3.75" rx="1"></rect>
                        <path d="M2.04878049,0.25 L4.6097561,0.25" id="Line" stroke-width="1.25" stroke-linecap="round"></path>
                        <path d="M1.53658537,6.5 L1.53658537,8.88634014" id="Line" stroke-width="1.5" stroke-linecap="square"></path>
                        <path d="M5.37804878,6.75 L5.37804878,9.125" id="Line" stroke-width="1.5" stroke-linecap="square"></path>
                        <rect id="Rectangle-4" stroke-width="1.5" stroke-linecap="round" x="9.98780488" y="1.75" width="6.14634146" height="3" rx="1.25"></rect>
                        <path d="M6.78658537,4.75 C6.78658537,4.75 18.9512195,4.75 19.5914634,4.75 C20.2317073,4.75 20.7439024,5.125 20.7439024,5.625 L20.7439024,15.625 C20.7439024,16 20.8719512,16.75 19.7195122,16.75 C18.5670732,16.75 7.04268293,16.75 7.04268293,16.75" id="Path-40" stroke-width="1.5"></path>
                        <path d="M13.0609756,8.5 L13.0609756,13" id="Line" stroke-width="1.5" stroke-linecap="round"></path>
                        <path d="M15.3658537,10.75 L10.7560976,10.75" id="Line-Copy-12" stroke-width="1.5" stroke-linecap="round"></path>
                    </g>
                    <g id="icon_apto" transform="translate(6.000000, 11.000000)">
                        <circle id="Oval-441-Copy-2" stroke="#808080" fill="#FFFFFF" cx="7.95277778" cy="7.95277778" r="7.95277778"></circle>
                        <path d="M9.49274691,6.4 L9.49274691,2.13333333 L6.4,2.13333333 L6.4,6.4 L2.13333333,6.4 L2.13333333,9.49274691 L6.4,9.49274691 L6.4,13.6452246 L9.49274691,13.6452246 L9.49274691,9.49274691 L13.6452246,9.49274691 L13.6452246,6.4 L9.49274691,6.4 Z" id="Combined-Shape-Copy-2" fill="#7ED321"></path>
                    </g>
                </g>
            </g>
        </g>
    </g>
</svg>