<?xml version="1.0" encoding="UTF-8" standalone="no"?>
<svg width="16px" height="19px" viewBox="0 0 16 19" version="1.1" xmlns="http://www.w3.org/2000/svg" xmlns:xlink="http://www.w3.org/1999/xlink">
    <!-- Generator: Sketch 3.7.1 (28215) - http://www.bohemiancoding.com/sketch -->
    <title>DJ_Comp_valMarca</title>
    <desc>Created with Sketch.</desc>
    <defs></defs>
    <g id="Page-1" stroke="none" stroke-width="1" fill="none" fill-rule="evenodd">
        <g id="02_Datos-Jugador-Comparación" transform="translate(-22.000000, -560.000000)">
            <g id="Mora" transform="translate(10.000000, 133.000000)">
                <g id="ValMarca" transform="translate(0.000000, 411.000000)">
                    <g id="DJ_Comp_valMarca" transform="translate(13.000000, 16.400000)">
                        <path id="Line" stroke="#808080" stroke-width="1.2" stroke-linecap="round"></path>
                        <path d="M5.4,0.8 L5.4,1.56992187" id="Line-Copy-13" stroke="#808080" stroke-width="1.2" stroke-linecap="round"></path>
                        <path d="M9,0.8 L9,1.56992187" id="Line-Copy-14" stroke="#808080" stroke-width="1.2" stroke-linecap="round"></path>
                        <rect id="Rectangle-11" stroke="#808080" stroke-width="1.2" x="0" y="2" width="14.4" height="15.5076923" rx="1"></rect>
                        <circle id="Oval-15" stroke="#808080" stroke-width="1.2" cx="4.3" cy="6.7" r="1.5"></circle>
                        <path d="M5,12.6 L2.8,14.8" id="Line-Copy-13" stroke="#808080" stroke-width="1.2" stroke-linecap="round"></path>
                        <path d="M5,14.8 L2.8,12.6" id="Line-Copy-15" stroke="#808080" stroke-width="1.2" stroke-linecap="round"></path>
                        <path d="M7.4,13.6 C7.54736842,13.5285714 8.65263158,12.7428571 8.8,12.6" id="Path-48" stroke="#808080" stroke-width="1.2" stroke-linecap="round"></path>
                        <path d="M9.55866237,11.1290973 C9.70603079,11.0576687 10.8112939,10.2719544 10.9586624,10.1290973" id="Path-48-Copy" stroke="#808080" stroke-width="1.2" stroke-linecap="round" transform="translate(10.258662, 10.629097) rotate(-39.000000) translate(-10.258662, -10.629097) "></path>
                        <path d="M9.6891103,7.75753615 C9.83647872,7.68610758 10.9417419,6.90039329 11.0891103,6.75753615" id="Path-48-Copy-2" stroke="#808080" stroke-width="1.2" stroke-linecap="round" transform="translate(10.389110, 7.257536) rotate(-59.000000) translate(-10.389110, -7.257536) "></path>
                        <path d="M9.40318566,4.28894446 C9.60235862,4.02338051 9.92524663,4.02333363 10.1244548,4.28894446 L11.6477902,6.32005835 C11.8469631,6.5856223 11.7410482,6.80090442 11.40299,6.80090442 L8.12465039,6.80090442 C7.79027804,6.80090442 7.68064211,6.58566919 7.87985024,6.32005835 L9.40318566,4.28894446 Z" id="Triangle-3" fill="#808080" transform="translate(9.764233, 5.445329) rotate(-24.000000) translate(-9.764233, -5.445329) "></path>
                    </g>
                </g>
            </g>
        </g>
    </g>
</svg>