<?xml version="1.0" encoding="UTF-8" standalone="no"?>
<svg width="21px" height="20px" viewBox="0 0 21 20" version="1.1" xmlns="http://www.w3.org/2000/svg" xmlns:xlink="http://www.w3.org/1999/xlink">
    <!-- Generator: Sketch 3.7.1 (28215) - http://www.bohemiancoding.com/sketch -->
    <title>DJ_Comp_peso</title>
    <desc>Created with Sketch.</desc>
    <defs></defs>
    <g id="Page-1" stroke="none" stroke-width="1" fill="none" fill-rule="evenodd">
        <g id="02_Datos-Jugador-Comparación" transform="translate(-20.000000, -449.000000)" stroke="#808080" stroke-width="1.2">
            <g id="Mora" transform="translate(10.000000, 133.000000)">
                <g id="Peso" transform="translate(0.000000, 301.000000)">
                    <g id="DJ_Comp_peso" transform="translate(11.000000, 16.000000)">
                        <path d="M16.7803573,0 L2.0674648,0 C0.927447173,0 0,0.983010573 0,2.1912298 L0,15.380278 C0,16.5885941 0.927447173,17.5715078 2.0674648,17.5715078 L16.7803573,17.5715078 C17.9203749,17.5715078 18.8478221,16.5884972 18.8478221,15.380278 L18.8478221,2.1912298 C18.8477307,0.983010573 17.9202835,0 16.7803573,0 L16.7803573,0 Z M6.83836862,5.11535678 C6.57999267,5.11535678 6.36979934,4.89257076 6.36979934,4.61871549 L6.36979934,2.00236075 C6.36979934,1.72850548 6.57999267,1.50571947 6.83836862,1.50571947 L12.009362,1.50571947 C12.267738,1.50571947 12.4779313,1.72850548 12.4779313,2.00236075 L12.4779313,4.61871549 C12.4779313,4.89257076 12.267738,5.11535678 12.009362,5.11535678 L6.83836862,5.11535678 L6.83836862,5.11535678 Z" id="Shape"></path>
                        <path d="M9.30208333,6.13636364 L9.30208333,15.9545455" id="Line" stroke-linecap="round"></path>
                    </g>
                </g>
            </g>
        </g>
    </g>
</svg>