<?xml version="1.0" encoding="UTF-8" standalone="no"?>
<svg width="27px" height="19px" viewBox="0 0 27 19" version="1.1" xmlns="http://www.w3.org/2000/svg" xmlns:xlink="http://www.w3.org/1999/xlink">
    <!-- Generator: Sketch 3.7.1 (28215) - http://www.bohemiancoding.com/sketch -->
    <title>DJ_Comp_pie</title>
    <desc>Created with Sketch.</desc>
    <defs></defs>
    <g id="Page-1" stroke="none" stroke-width="1" fill="none" fill-rule="evenodd">
        <g id="02_Datos-Jugador-Comparación" transform="translate(-17.000000, -505.000000)">
            <g id="Mora" transform="translate(10.000000, 133.000000)">
                <g id="Pie" transform="translate(0.000000, 356.000000)">
                    <g id="DJ_Comp_pie" transform="translate(7.000000, 16.000000)">
                        <g id="soccer" fill="#808080">
                            <polygon id="Shape" points="7.97039933 6.27433147 9.91896211 3.42628654 7.54779014 1.16815699 4.23640872 2.38435611 4.34664058 5.57153954"></polygon>
                            <polygon id="Shape" points="6.70793535 12.0451635 8.49116499 13.9420043 11.6059697 12.5840136 12.11466 9.77338461 9.02265781 9.38458763"></polygon>
                            <path d="M0.461062844,10.0813032 L0.500425084,10.1305127 C1.55998156,12.8912138 4.19012951,14.8470521 7.26891321,14.8470521 C11.2835686,14.8470521 14.5377678,11.5236445 14.5377678,7.42351107 C14.5377385,3.32361707 11.2835393,0 7.2688839,0 C3.25437505,0 0,3.3238266 0,7.42351107 C0,8.34148982 0.164248692,9.22025662 0.46264554,10.0320039 L0.461062844,10.0813032 L0.461062844,10.0813032 Z M0.894741952,7.42350211 C0.894741952,6.55621186 1.063095,5.72868627 1.3659895,4.97105341 L2.95670755,2.95543433 L3.36900848,2.28023835 C4.44794302,1.42504919 5.80062412,0.913979303 7.26894796,0.913979303 C7.30425085,0.913979303 7.33898434,0.916194604 7.37450415,0.916582282 L8.08587645,1.18419061 L9.65381844,1.38852442 C10.657836,1.80394869 11.5360158,2.47263722 12.2110278,3.31780215 L11.9499165,4.47895204 L12.9800994,7.4460151 L13.6382191,7.61626097 C13.5371639,11.1169346 10.720199,13.9328034 7.26892084,13.9328034 C5.55054839,13.9328034 3.99008997,13.2336822 2.84252899,12.1007774 L4.07964869,11.0155015 L2.89900819,7.90751763 L1.0517612,7.25774223 L1.00905609,8.64360669 C0.935142345,8.24845242 0.894741952,7.84083708 0.894741952,7.42350211 L0.894741952,7.42350211 Z" id="Shape"></path>
                        </g>
                        <g id="foot" transform="translate(17.514154, 11.563845) rotate(-25.000000) translate(-17.514154, -11.563845) translate(8.014154, 7.063845)" stroke="#808080" stroke-linecap="round">
                            <path d="M2.68764045,7.5 L2.68764045,8.7" id="Line" stroke-width="1.2"></path>
                            <path d="M4.75505618,7.5 L4.75505618,8.7" id="Line-Copy-8" stroke-width="1.2"></path>
                            <path d="M7.02921348,7.5 L7.02921348,8.7" id="Line-Copy-9" stroke-width="1.2"></path>
                            <path d="M13.4382022,7.5 L13.4382022,8.7" id="Line-Copy-10" stroke-width="1.2"></path>
                            <path d="M15.505618,7.5 L15.505618,8.7" id="Line-Copy-11" stroke-width="1.2"></path>
                            <path d="M13.6449438,0.1 C14.3685393,1 15.7123596,2.9 18.2966292,1.4 C18.1932584,5 18.1932584,5.3 18.1932584,5.8 C18.1932584,6.3 18.0898876,7 16.6426966,7 C15.1955056,7 2.06741573,7 1.24044944,7 C0.413483146,7 -0.620224719,5 1.13707865,4.4 C1.86067416,4 2.99775281,3.9 4.13483146,3.6 C5.27191011,3.3 6.71910112,3.4 11.2674157,0.2" id="Path-31" stroke-linejoin="round"></path>
                        </g>
                    </g>
                </g>
            </g>
        </g>
    </g>
</svg>