<?xml version="1.0" encoding="UTF-8" standalone="no"?>
<svg width="15px" height="20px" viewBox="0 0 15 20" version="1.1" xmlns="http://www.w3.org/2000/svg" xmlns:xlink="http://www.w3.org/1999/xlink">
    <!-- Generator: Sketch 3.7.1 (28215) - http://www.bohemiancoding.com/sketch -->
    <title>DJ_Comp_altura</title>
    <desc>Created with Sketch.</desc>
    <defs></defs>
    <g id="Page-1" stroke="none" stroke-width="1" fill="none" fill-rule="evenodd">
        <g id="02_Datos-Jugador-Comparación" transform="translate(-23.000000, -394.000000)" stroke="#808080">
            <g id="Mora" transform="translate(10.000000, 133.000000)">
                <g id="Altura" transform="translate(0.000000, 246.000000)">
                    <g id="DJ_Comp_altura" transform="translate(14.000000, 16.000000)">
                        <path d="M12.6654412,0.945154874 L12.6654412,17.3623188" id="Line" stroke-width="1.92" stroke-linecap="round"></path>
                        <path d="M8.49632353,1.10144928 L13,1.10144928" id="Line" stroke-width="0.64" stroke-linecap="round"></path>
                        <path d="M9.65441176,8.75362319 L13,8.75362319" id="Line-Copy-7" stroke-width="0.64" stroke-linecap="round"></path>
                        <path d="M9.65441176,16.4057971 L13,16.4057971" id="Line-Copy-21" stroke-width="0.64" stroke-linecap="round"></path>
                        <g id="Group-2">
                            <ellipse id="Oval-14" stroke-width="1.12" cx="3.36458333" cy="2.33333333" rx="1.94791667" ry="2.33333333"></ellipse>
                            <path d="M3.50259862,5.55864198 C3.50259862,5.55864198 6.59634862,5.44753086 6.25259862,6.55864198 C6.02343195,8.66975309 5.22134862,15.558642 5.10676529,16.4475309 C4.99218195,17.3364198 4.19009862,17.7808642 3.38801529,17.7808642 C2.58593195,17.7808642 1.44009862,17.4475309 1.44009862,16.4475309 C1.32551529,15.3364198 0.523431953,7.89197531 0.294265286,6.55864198 C-0.049484714,5.44753086 3.50259862,5.55864198 3.50259862,5.55864198 Z" id="Path-27" stroke-width="1.12"></path>
                            <path d="M0.614583333,9.88888889 L5.88541667,9.88888889" id="Line" stroke-width="0.672" stroke-linecap="square"></path>
                            <path d="M3.36458333,13 L3.36458333,17.6666667" id="Line" stroke-width="0.672" stroke-linecap="round"></path>
                        </g>
                    </g>
                </g>
            </g>
        </g>
    </g>
</svg>