<?xml version="1.0" encoding="UTF-8" standalone="no"?>
<svg width="18px" height="20px" viewBox="0 0 18 20" version="1.1" xmlns="http://www.w3.org/2000/svg" xmlns:xlink="http://www.w3.org/1999/xlink">
    <!-- Generator: Sketch 3.7.1 (28215) - http://www.bohemiancoding.com/sketch -->
    <title>DJ_Comp_reporesentante</title>
    <desc>Created with Sketch.</desc>
    <defs></defs>
    <g id="Page-1" stroke="none" stroke-width="1" fill="none" fill-rule="evenodd">
        <g id="02_Datos-Jugador-Comparación" transform="translate(-23.000000, -762.000000)" stroke="#808080">
            <g id="Mora" transform="translate(10.000000, 133.000000)">
                <g id="REPRESENTANTE" transform="translate(0.000000, 614.000000)">
                    <g id="DJ_Comp_reporesentante" transform="translate(14.000000, 16.000000)">
                        <ellipse id="Oval-14" stroke-width="1.08" cx="3.20595533" cy="2.30320781" rx="1.8560794" ry="2.30320781"></ellipse>
                        <path d="M3.3374637,5.48687469 C3.3374637,5.48687469 6.28535452,5.37719813 5.95781109,6.47396375 C5.73944881,8.55781844 4.97518082,15.3577653 4.86599968,16.2351778 C4.75681854,17.1125903 3.99255055,17.5512966 3.22828256,17.5512966 C2.46401457,17.5512966 1.37220315,17.2222669 1.37220315,16.2351778 C1.26302201,15.1384122 0.498754019,7.7900825 0.280391737,6.47396375 C-0.0471516878,5.37719813 3.3374637,5.48687469 3.3374637,5.48687469 Z" id="Path-27" stroke-width="1.08"></path>
                        <path d="M0.58560794,9.76121405 L5.60794045,9.76121405" id="Line" stroke-width="0.648" stroke-linecap="square"></path>
                        <path d="M3.20595533,12.8321578 L3.20595533,17.4385734" id="Line" stroke-width="0.648" stroke-linecap="round"></path>
                        <rect id="Rectangle-4" stroke-width="1.22727273" stroke-linecap="round" x="7.22580645" y="4.11428571" width="4.98505114" height="2.43609023" rx="1.02272727"></rect>
                        <path d="M5.93548387,6.68571429 C5.93548387,6.68571429 14.5114083,6.68571429 15.0306845,6.68571429 C15.5499607,6.68571429 15.9653816,6.99022556 15.9653816,7.3962406 L15.9653816,15.5165414 C15.9653816,15.8210526 16.0692368,16.4300752 15.1345397,16.4300752 C14.1998426,16.4300752 4.85287175,16.4300752 4.85287175,16.4300752" id="Path-40" stroke-width="1.22727273"></path>
                    </g>
                </g>
            </g>
        </g>
    </g>
</svg>