<?xml version="1.0" encoding="UTF-8" standalone="no"?>
<svg width="18px" height="25px" viewBox="0 0 18 25" version="1.1" xmlns="http://www.w3.org/2000/svg" xmlns:xlink="http://www.w3.org/1999/xlink">
    <!-- Generator: Sketch 3.7.1 (28215) - http://www.bohemiancoding.com/sketch -->
    <title>DJ_icon_altura</title>
    <desc>Created with Sketch.</desc>
    <defs></defs>
    <g id="Page-1" stroke="none" stroke-width="1" fill="none" fill-rule="evenodd">
        <g id="02_Datos-Jugador_A" transform="translate(-28.000000, -368.000000)" stroke="#808080">
            <g id="Altura" transform="translate(29.000000, 369.000000)">
                <g id="DJ_icon_altura">
                    <path d="M15.5882353,1.20769789 L15.5882353,22.1851852" id="Line" stroke-width="2.4" stroke-linecap="round"></path>
                    <path d="M10.4570136,1.40740741 L16,1.40740741" id="Line" stroke-width="0.8" stroke-linecap="round"></path>
                    <path d="M11.8823529,11.1851852 L16,11.1851852" id="Line-Copy-7" stroke-width="0.8" stroke-linecap="round"></path>
                    <path d="M11.8823529,20.962963 L16,20.962963" id="Line-Copy-21" stroke-width="0.8" stroke-linecap="round"></path>
                    <g id="Group-2">
                        <ellipse id="Oval-14" stroke-width="1.4" cx="4.14102564" cy="2.98148148" rx="2.3974359" ry="2.98148148"></ellipse>
                        <path d="M4.31089061,7.10270919 C4.31089061,7.10270919 8.11858292,6.96073388 7.69550599,8.38048697 C7.41345471,11.0780178 6.42627522,19.880487 6.28524958,21.0162894 C6.14422394,22.1520919 5.15704445,22.7199931 4.16986497,22.7199931 C3.18268548,22.7199931 1.77242907,22.2940672 1.77242907,21.0162894 C1.63140343,19.5965364 0.644223942,10.0841907 0.36217266,8.38048697 C-0.0609042634,6.96073388 4.31089061,7.10270919 4.31089061,7.10270919 Z" id="Path-27" stroke-width="1.4"></path>
                        <path d="M0.756410256,12.6358025 L7.24358974,12.6358025" id="Line" stroke-width="0.84" stroke-linecap="square"></path>
                        <path d="M4.14102564,16.6111111 L4.14102564,22.5740741" id="Line" stroke-width="0.84" stroke-linecap="round"></path>
                    </g>
                </g>
            </g>
        </g>
    </g>
</svg>