<?xml version="1.0" encoding="UTF-8" standalone="no"?>
<svg width="34px" height="24px" viewBox="0 0 34 24" version="1.1" xmlns="http://www.w3.org/2000/svg" xmlns:xlink="http://www.w3.org/1999/xlink">
    <!-- Generator: Sketch 3.7.1 (28215) - http://www.bohemiancoding.com/sketch -->
    <title>DJ_icon_pie</title>
    <desc>Created with Sketch.</desc>
    <defs></defs>
    <g id="Page-1" stroke="none" stroke-width="1" fill="none" fill-rule="evenodd">
        <g id="02_Datos-Jugador_A" transform="translate(-19.000000, -471.000000)">
            <g id="Pie" transform="translate(19.000000, 471.000000)">
                <g id="DJ_icon_pie">
                    <g id="soccer" fill="#808080">
                        <polygon id="Shape" points="9.96299916 7.84291434 12.3987026 4.28285817 9.43473768 1.46019624 5.2955109 2.98044514 5.43330072 6.96442442"></polygon>
                        <polygon id="Shape" points="8.38491918 15.0564544 10.6139562 17.4275054 14.5074621 15.730017 15.1433249 12.2167308 11.2783223 11.7307345"></polygon>
                        <path d="M0.576328555,12.601629 L0.625531355,12.6631409 C1.94997695,16.1140172 5.23766189,18.5588151 9.08614152,18.5588151 C14.1044608,18.5588151 18.1722098,14.4045557 18.1722098,9.27938884 C18.1721731,4.15452134 14.1044241,0 9.08610488,0 C4.06796881,0 0,4.15478325 0,9.27938884 C0,10.4268623 0.205310865,11.5253208 0.578306925,12.5400049 L0.576328555,12.601629 L0.576328555,12.601629 Z M1.11842744,9.27937764 C1.11842744,8.19526483 1.32886875,7.16085784 1.70748687,6.21381676 L3.69588443,3.69429291 L4.2112606,2.85029794 C5.55992877,1.78131148 7.25078015,1.14247413 9.08618495,1.14247413 C9.13031356,1.14247413 9.17373043,1.14524326 9.21813019,1.14572785 L10.1073456,1.48023827 L12.0672731,1.73565552 C13.322295,2.25493586 14.4200198,3.09079653 15.2637847,4.14725269 L14.9373957,5.59869005 L16.2251243,9.30751888 L17.0477739,9.52032621 C16.9214549,13.8961682 13.4002488,17.4160042 9.08615105,17.4160042 C6.93818549,17.4160042 4.98761246,16.5421027 3.55316123,15.1259717 L5.09956086,13.7693769 L3.62376024,9.88439704 L1.3147015,9.07217779 L1.26132011,10.8045084 C1.16892793,10.3105655 1.11842744,9.80104635 1.11842744,9.27937764 L1.11842744,9.27937764 Z" id="Shape"></path>
                    </g>
                    <g id="foot" transform="translate(21.500000, 14.500000) rotate(-25.000000) translate(-21.500000, -14.500000) translate(10.000000, 9.000000)" stroke="#808080" stroke-linecap="round">
                        <path d="M3.35955056,9.375 L3.35955056,10.875" id="Line" stroke-width="1.5"></path>
                        <path d="M5.94382022,9.375 L5.94382022,10.875" id="Line-Copy-8" stroke-width="1.5"></path>
                        <path d="M8.78651685,9.375 L8.78651685,10.875" id="Line-Copy-9" stroke-width="1.5"></path>
                        <path d="M16.7977528,9.375 L16.7977528,10.875" id="Line-Copy-10" stroke-width="1.5"></path>
                        <path d="M19.3820225,9.375 L19.3820225,10.875" id="Line-Copy-11" stroke-width="1.5"></path>
                        <path d="M17.0561798,0.125 C17.9606742,1.25 19.6404494,3.625 22.8707865,1.75 C22.741573,6.25 22.741573,6.625 22.741573,7.25 C22.741573,7.875 22.6123596,8.75 20.8033708,8.75 L1.5505618,8.75 C0.516853933,8.75 -0.775280899,6.25 1.42134831,5.5 C2.3258427,5 3.74719101,4.875 5.16853933,4.5 C6.58988764,4.125 8.3988764,4.25 14.0842697,0.25" id="Path-31" stroke-width="1.25" stroke-linejoin="round"></path>
                    </g>
                </g>
            </g>
        </g>
    </g>
</svg>