<?xml version="1.0" encoding="UTF-8" standalone="no"?>
<svg width="26px" height="24px" viewBox="0 0 26 24" version="1.1" xmlns="http://www.w3.org/2000/svg" xmlns:xlink="http://www.w3.org/1999/xlink">
    <!-- Generator: Sketch 3.7.1 (28215) - http://www.bohemiancoding.com/sketch -->
    <title>DJ_icon_peso</title>
    <desc>Created with Sketch.</desc>
    <defs></defs>
    <g id="Page-1" stroke="none" stroke-width="1" fill="none" fill-rule="evenodd">
        <g id="02_Datos-Jugador_A" transform="translate(-23.000000, -423.000000)" stroke-width="1.5" stroke="#808080">
            <g id="Peso" transform="translate(24.000000, 424.000000)">
                <g id="DJ_icon_peso">
                    <path d="M21.1962408,0 L2.61153448,0 C1.17151222,0 0,1.20145737 0,2.67816975 L0,18.7981176 C0,20.2749484 1.17151222,21.4762873 2.61153448,21.4762873 L21.1962408,21.4762873 C22.6362631,21.4762873 23.8077753,20.27483 23.8077753,18.7981176 L23.8077753,2.67816975 C23.8076598,1.20145737 22.6361476,0 21.1962408,0 L21.1962408,0 Z M8.63793931,6.25210273 C8.31156968,6.25210273 8.04606233,5.97980871 8.04606233,5.64509671 L8.04606233,2.44732981 C8.04606233,2.11261781 8.31156968,1.84032379 8.63793931,1.84032379 L15.1697205,1.84032379 C15.4960901,1.84032379 15.7615975,2.11261781 15.7615975,2.44732981 L15.7615975,5.64509671 C15.7615975,5.97980871 15.4960901,6.25210273 15.1697205,6.25210273 L8.63793931,6.25210273 L8.63793931,6.25210273 Z" id="Shape"></path>
                    <path d="M11.75,7.5 L11.75,19.5" id="Line" stroke-linecap="round"></path>
                </g>
            </g>
        </g>
    </g>
</svg>