<?xml version="1.0" encoding="UTF-8" standalone="no"?>
<svg width="21px" height="23px" viewBox="0 0 21 23" version="1.1" xmlns="http://www.w3.org/2000/svg" xmlns:xlink="http://www.w3.org/1999/xlink">
    <!-- Generator: Sketch 3.7.1 (28215) - http://www.bohemiancoding.com/sketch -->
    <title>DJ_icon_representante</title>
    <desc>Created with Sketch.</desc>
    <defs></defs>
    <g id="Page-1" stroke="none" stroke-width="1" fill="none" fill-rule="evenodd">
        <g id="02_Datos-Jugador_A" transform="translate(-26.000000, -614.000000)" stroke="#808080">
            <g id="Representante" transform="translate(10.000000, 592.000000)">
                <g id="DJ_icon_representante" transform="translate(17.000000, 23.000000)">
                    <ellipse id="Oval-14" stroke-width="1.26" cx="3.80707196" cy="2.68707578" rx="2.20409429" ry="2.68707578"></ellipse>
                    <path d="M3.96323814,6.40135381 C3.96323814,6.40135381 7.46385849,6.27339782 7.07490067,7.55295771 C6.81559546,9.98412151 5.90802722,17.9173929 5.77837462,18.9410408 C5.64872201,19.9646887 4.74115377,20.4765126 3.83358553,20.4765126 C2.9260173,20.4765126 1.62949124,20.0926447 1.62949124,18.9410408 C1.49983864,17.6614809 0.592270398,9.08842958 0.332965187,7.55295771 C-0.0559926292,6.27339782 3.96323814,6.40135381 3.96323814,6.40135381 Z" id="Path-27" stroke-width="1.26"></path>
                    <path d="M0.695409429,11.3880831 L6.65942928,11.3880831" id="Line" stroke-width="0.756" stroke-linecap="square"></path>
                    <path d="M3.80707196,14.9708508 L3.80707196,20.3450023" id="Line" stroke-width="0.756" stroke-linecap="round"></path>
                    <rect id="Rectangle-4" stroke-width="1.43181818" stroke-linecap="round" x="8.58064516" y="4.8" width="5.91974823" height="2.84210526" rx="1.19318182"></rect>
                    <path d="M7.0483871,7.8 C7.0483871,7.8 17.2322974,7.8 17.8489378,7.8 C18.4655783,7.8 18.9588906,8.15526316 18.9588906,8.62894737 L18.9588906,18.1026316 C18.9588906,18.4578947 19.0822187,19.1684211 17.9722659,19.1684211 C16.8623131,19.1684211 5.76278521,19.1684211 5.76278521,19.1684211" id="Path-40" stroke-width="1.43181818"></path>
                </g>
            </g>
        </g>
    </g>
</svg>