<?xml version="1.0" encoding="UTF-8" standalone="no"?>
<svg width="11px" height="13px" viewBox="0 0 11 13" version="1.1" xmlns="http://www.w3.org/2000/svg" xmlns:xlink="http://www.w3.org/1999/xlink">
    <!-- Generator: Sketch 3.7.1 (28215) - http://www.bohemiancoding.com/sketch -->
    <title>PER_comp_offSide</title>
    <desc>Created with Sketch.</desc>
    <defs></defs>
    <g id="Page-1" stroke="none" stroke-width="1" fill="none" fill-rule="evenodd">
        <g id="03_Performance-Compara" transform="translate(-16.000000, -827.000000)" fill="#4A4A4A">
            <g id="Contain" transform="translate(10.000000, 324.000000)">
                <g id="Offsides" transform="translate(0.000000, 499.000000)">
                    <g id="PER_comp_offSide" transform="translate(6.267606, 4.897959)">
                        <path d="M9.5879123,6.4335594e-05 C8.4000564,0.0205685384 7.2669262,0.202462333 6.06726875,0.395010018 C4.80319895,0.597926452 3.49610053,0.807738106 2.07122175,0.826350012 C1.85054347,0.82922734 1.67101391,1.00878817 1.67101391,1.22660968 L1.22715084,1.24242202 L1.22715084,1.02208609 C1.22715084,0.686190436 0.95190352,0.412922033 0.613575421,0.412922033 C0.275247323,0.412922033 0,0.686190436 0,1.02208609 L0,11.3908359 C0,11.7267316 0.275247323,12 0.613575421,12 C0.95190352,12 1.22715084,11.7267316 1.22715084,11.3908359 L1.22715084,7.02442577 L1.67101391,7.02442577 C1.67101391,7.14301835 1.71406863,7.24494316 1.79224075,7.32149045 C1.86892462,7.39658613 1.96970765,7.43775006 2.07662643,7.43775006 C3.53367224,7.41823089 4.8534338,7.20639733 6.12974901,7.00151083 C7.31757881,6.81085545 8.4395341,6.63075026 9.60185483,6.6113607 C9.82138428,6.60767979 10,6.4282745 10,6.21143802 L10,0.40361608 C10,0.29451091 9.95668419,0.192171349 9.8780682,0.1154426 C9.79989608,0.0391804444 9.69629322,-0.00185388313 9.5879123,6.4335594e-05 Z M1.22717695,6.63559765 L1.22717695,1.63125014 L1.67104002,1.63125014 L1.67104002,6.63559765 L1.22717695,6.63559765 L1.22717695,6.63559765 Z M9.41443321,3.37239326 C7.70296635,3.37239327 5.83554614,3.72056665 5.83554614,3.72056665 C5.83554614,3.72056665 5.92667424,5.88838097 5.99119623,6.48098708 C4.79163789,6.67353963 3.61578758,6.86515915 2.26389019,6.88331333 C2.25272528,6.87732762 2.25034343,5.09521348 2.25034343,4.08062151 C2.93446346,4.08062148 5.86892692,3.72056665 5.86892692,3.72056665 C5.86892692,3.72056665 5.7111987,2.28034729 5.71119858,0.989670459 C5.84643353,0.968235697 5.98105122,0.946625611 6.11516518,0.925096323 C7.24163056,0.744293488 8.30564684,0.573516097 9.40774789,0.554475145 C9.41824291,0.560214526 9.41653841,2.4377674 9.41443321,3.37239326 Z" id="Shape"></path>
                    </g>
                </g>
            </g>
        </g>
    </g>
</svg>