<?xml version="1.0" encoding="UTF-8" standalone="no"?>
<svg width="42px" height="26px" viewBox="0 0 42 26" version="1.1" xmlns="http://www.w3.org/2000/svg" xmlns:xlink="http://www.w3.org/1999/xlink">
    <!-- Generator: Sketch 3.7.1 (28215) - http://www.bohemiancoding.com/sketch -->
    <title>PER_silvato</title>
    <desc>Created with Sketch.</desc>
    <defs>
        <ellipse id="path-1" cx="35.443038" cy="4.59574468" rx="4.55696203" ry="4.59574468"></ellipse>
        <mask id="mask-2" maskContentUnits="userSpaceOnUse" maskUnits="objectBoundingBox" x="0" y="0" width="9.11392405" height="9.19148936" fill="white">
            <use xlink:href="#path-1"></use>
        </mask>
    </defs>
    <g id="Page-1" stroke="none" stroke-width="1" fill="none" fill-rule="evenodd">
        <g id="03_Performance_A" transform="translate(-211.000000, -805.000000)" stroke="#5B5B5D">
            <g id="Injury" transform="translate(0.000000, 790.000000)">
                <g id="Group-3" transform="translate(187.000000, 0.000000)">
                    <g id="PER_silvato" transform="translate(26.000000, 15.000000)">
                        <path d="M22.7848101,3.82978723 L22.7848101,8.17021277" id="Line" stroke-width="3" stroke-linecap="round"></path>
                        <use id="Oval-16" mask="url(#mask-2)" stroke-width="6" xlink:href="#path-1"></use>
                        <path d="M21.7697218,1.57793314 C22.1040424,1.54747543 22.4426244,1.53191489 22.7848101,1.53191489 C28.9368428,1.53191489 33.9240506,6.56156707 33.9240506,12.7659574 C33.9240506,18.9703478 28.9368428,24 22.7848101,24 C16.6327775,24 11.6455696,18.9703478 11.6455696,12.7659574 C11.6455696,10.9272033 12.0836024,9.19162786 12.8601713,7.65957447 L3.06577863,7.65957447 C1.37259584,7.65957447 0,6.28440805 0,4.59574468 C0,2.90363821 1.37631284,1.53191489 3.06577863,1.53191489 L21.2380188,1.53191489 C21.4193613,1.53191489 21.5970265,1.54768907 21.7697218,1.57793314 Z" id="Combined-Shape" stroke-width="3"></path>
                    </g>
                </g>
            </g>
        </g>
    </g>
</svg>