<?xml version="1.0" encoding="UTF-8" standalone="no"?>
<svg width="26px" height="20px" viewBox="0 0 26 20" version="1.1" xmlns="http://www.w3.org/2000/svg" xmlns:xlink="http://www.w3.org/1999/xlink">
    <!-- Generator: Sketch 3.7.1 (28215) - http://www.bohemiancoding.com/sketch -->
    <title>PER_comp_faltasReci</title>
    <desc>Created with Sketch.</desc>
    <defs></defs>
    <g id="Page-1" stroke="none" stroke-width="1" fill="none" fill-rule="evenodd">
        <g id="03_Performance-Compara" transform="translate(-73.000000, -763.000000)" stroke="#5A5A5C">
            <g id="Contain" transform="translate(10.000000, 324.000000)">
                <g id="Injury" transform="translate(0.000000, 374.000000)">
                    <g id="Group-4" transform="translate(10.000000, 10.000000)">
                        <g id="4" transform="translate(47.500000, 55.000000)">
                            <g id="PER_comp_faltasReci" transform="translate(6.500000, 0.000000)">
                                <g id="Position" transform="translate(5.800000, 1.021505)">
                                    <ellipse id="Oval-14" cx="2.7" cy="2.14516129" rx="1.7" ry="2.14516129"></ellipse>
                                    <path d="M2.8204497,5.1103644 C2.8204497,5.1103644 5.5204497,5.00821386 5.2204497,6.02971924 C5.0204497,7.97057945 4.3204497,14.3039128 4.2204497,15.1211171 C4.1204497,15.9383214 3.4204497,16.3469235 2.7204497,16.3469235 C2.0204497,16.3469235 1.0204497,16.0404719 1.0204497,15.1211171 C0.920449704,14.0996117 0.220449704,7.25552569 0.0204497041,6.02971924 C-0.279550296,5.00821386 2.8204497,5.1103644 2.8204497,5.1103644 Z" id="Path-27"></path>
                                    <path d="M0.3,9.09139785 L4.9,9.09139785" id="Line" stroke-width="0.6" stroke-linecap="square"></path>
                                    <path d="M2.7,11.9516129 L2.7,16.2419355" id="Line" stroke-width="0.6" stroke-linecap="round"></path>
                                </g>
                                <path d="M0.1,13.8924731 L4.9,13.8924731" id="Line" stroke-width="1.2" stroke-linecap="round"></path>
                                <path d="M1.4,18.881634 L5.37938035,16.1397849" id="Line-Copy-23" stroke-width="1.2" stroke-linecap="round"></path>
                                <path d="M0.6,9.39784946 L5.0184233,11.3136924" id="Line-Copy-22" stroke-width="1.2" stroke-linecap="round"></path>
                                <g id="Position-Copy" transform="translate(18.289216, 8.172786) rotate(-315.000000) translate(-18.289216, -8.172786) translate(15.289216, -0.327214)">
                                    <ellipse id="Oval-14" cx="2.7" cy="2.14516129" rx="1.7" ry="2.14516129"></ellipse>
                                    <path d="M2.8204497,5.1103644 C2.8204497,5.1103644 5.5204497,5.00821386 5.2204497,6.02971924 C5.0204497,7.97057945 4.3204497,14.3039128 4.2204497,15.1211171 C4.1204497,15.9383214 3.4204497,16.3469235 2.7204497,16.3469235 C2.0204497,16.3469235 1.0204497,16.0404719 1.0204497,15.1211171 C0.920449704,14.0996117 0.220449704,7.25552569 0.0204497041,6.02971924 C-0.279550296,5.00821386 2.8204497,5.1103644 2.8204497,5.1103644 Z" id="Path-27"></path>
                                    <path d="M0.3,9.09139785 L4.9,9.09139785" id="Line" stroke-width="0.6" stroke-linecap="square"></path>
                                    <path d="M2.7,11.9516129 L2.7,16.2419355" id="Line" stroke-width="0.6" stroke-linecap="round"></path>
                                </g>
                            </g>
                        </g>
                    </g>
                </g>
            </g>
        </g>
    </g>
</svg>