<?xml version="1.0" encoding="UTF-8" standalone="no"?>
<svg width="51px" height="38px" viewBox="0 0 51 38" version="1.1" xmlns="http://www.w3.org/2000/svg" xmlns:xlink="http://www.w3.org/1999/xlink">
    <!-- Generator: Sketch 3.7.1 (28215) - http://www.bohemiancoding.com/sketch -->
    <title>PER_faltasRecibidas</title>
    <desc>Created with Sketch.</desc>
    <defs></defs>
    <g id="Page-1" stroke="none" stroke-width="1" fill="none" fill-rule="evenodd">
        <g id="03_Performance_A" transform="translate(-301.000000, -801.000000)" stroke="#5A5A5C">
            <g id="Injury" transform="translate(0.000000, 790.000000)">
                <g id="Group-2" transform="translate(279.000000, 0.000000)">
                    <g id="PER_faltasRecibidas" transform="translate(23.000000, 10.000000)">
                        <g id="Position" transform="translate(11.600000, 2.043011)">
                            <ellipse id="Oval-14" stroke-width="2" cx="5.4" cy="4.29032258" rx="3.4" ry="4.29032258"></ellipse>
                            <path d="M5.64089941,10.2207288 C5.64089941,10.2207288 11.0408994,10.0164277 10.4408994,12.0594385 C10.0408994,15.9411589 8.64089941,28.6078256 8.44089941,30.2422342 C8.24089941,31.8766428 6.84089941,32.6938471 5.44089941,32.6938471 C4.04089941,32.6938471 2.04089941,32.0809438 2.04089941,30.2422342 C1.84089941,28.1992234 0.440899408,14.5110514 0.0408994083,12.0594385 C-0.559100592,10.0164277 5.64089941,10.2207288 5.64089941,10.2207288 Z" id="Path-27" stroke-width="2"></path>
                            <path d="M0.6,18.1827957 L9.8,18.1827957" id="Line" stroke-width="1.2" stroke-linecap="square"></path>
                            <path d="M5.4,23.9032258 L5.4,32.483871" id="Line" stroke-width="1.2" stroke-linecap="round"></path>
                        </g>
                        <path d="M0.2,27.7849462 L9.8,27.7849462" id="Line" stroke-width="2.4" stroke-linecap="round"></path>
                        <path d="M2.8,37.763268 L10.7587607,32.2795699" id="Line-Copy-23" stroke-width="2.4" stroke-linecap="round"></path>
                        <path d="M1.2,18.7956989 L10.0368466,22.6273848" id="Line-Copy-22" stroke-width="2.4" stroke-linecap="round"></path>
                        <g id="Position-Copy" transform="translate(36.578432, 15.638465) rotate(-315.000000) translate(-36.578432, -15.638465) translate(31.078432, -0.861535)">
                            <ellipse id="Oval-14" stroke-width="2" cx="5.4" cy="4.29032258" rx="3.4" ry="4.29032258"></ellipse>
                            <path d="M5.64089941,10.2207288 C5.64089941,10.2207288 11.0408994,10.0164277 10.4408994,12.0594385 C10.0408994,15.9411589 8.64089941,28.6078256 8.44089941,30.2422342 C8.24089941,31.8766428 6.84089941,32.6938471 5.44089941,32.6938471 C4.04089941,32.6938471 2.04089941,32.0809438 2.04089941,30.2422342 C1.84089941,28.1992234 0.440899408,14.5110514 0.0408994083,12.0594385 C-0.559100592,10.0164277 5.64089941,10.2207288 5.64089941,10.2207288 Z" id="Path-27" stroke-width="2"></path>
                            <path d="M0.6,18.1827957 L9.8,18.1827957" id="Line" stroke-width="1.2" stroke-linecap="square"></path>
                            <path d="M5.4,23.9032258 L5.4,32.483871" id="Line" stroke-width="1.2" stroke-linecap="round"></path>
                        </g>
                    </g>
                </g>
            </g>
        </g>
    </g>
</svg>