<?xml version="1.0" encoding="UTF-8" standalone="no"?>
<svg width="19px" height="28px" viewBox="0 0 19 28" version="1.1" xmlns="http://www.w3.org/2000/svg" xmlns:xlink="http://www.w3.org/1999/xlink">
    <!-- Generator: Sketch 3.7.1 (28215) - http://www.bohemiancoding.com/sketch -->
    <title>PLANTELordenar_-</title>
    <desc>Created with Sketch.</desc>
    <defs></defs>
    <g id="Page-1" stroke="none" stroke-width="1" fill="none" fill-rule="evenodd">
        <g id="07_Sort" transform="translate(-323.000000, -211.000000)" stroke="#FFFFFF">
            <g id="Contain" transform="translate(0.000000, -34.000000)">
                <g id="PLANTELordenar_-" transform="translate(324.000000, 246.000000)">
                    <g id="Position" transform="translate(8.095238, 0.000000)">
                        <ellipse id="Oval-14" stroke-width="1.2" cx="4.37142857" cy="3.38025415" rx="2.75238095" ry="3.38025415"></ellipse>
                        <path d="M4.56644238,8.05269541 C4.56644238,8.05269541 8.93787095,7.89173093 8.45215666,9.50137576 C8.12834714,12.559701 6.99501381,22.5394989 6.83310904,23.8272148 C6.67120428,25.1149307 5.53787095,25.7587886 4.40453762,25.7587886 C3.27120428,25.7587886 1.65215666,25.2758952 1.65215666,23.8272148 C1.4902519,22.21757 0.356918569,11.4329496 0.0331090448,9.50137576 C-0.452605241,7.89173093 4.56644238,8.05269541 4.56644238,8.05269541 Z" id="Path-27" stroke-width="1.2"></path>
                        <path d="M0.485714286,14.325839 L7.93333333,14.325839" id="Line" stroke-width="0.8" stroke-linecap="square"></path>
                        <path d="M4.37142857,18.8328446 L4.37142857,25.5933529" id="Line" stroke-width="0.96" stroke-linecap="round"></path>
                    </g>
                    <g id="Position-Copy" transform="translate(0.000000, 6.303030)">
                        <ellipse id="Oval-14" stroke-width="0.8" cx="2.38441558" cy="1.74134305" rx="1.5012987" ry="1.74134305"></ellipse>
                        <path d="M2.49078675,4.14835824 C2.49078675,4.14835824 4.87520234,4.06543715 4.61026727,4.89464812 C4.43364389,6.47014898 3.81546208,11.611257 3.72715039,12.2746258 C3.6388387,12.9379946 3.02065688,13.269679 2.40247506,13.269679 C1.78429325,13.269679 0.901176362,13.0209157 0.901176362,12.2746258 C0.812864674,11.4454148 0.194682856,5.88970129 0.018059479,4.89464812 C-0.246875586,4.06543715 2.49078675,4.14835824 2.49078675,4.14835824 Z" id="Path-27" stroke-width="0.8"></path>
                        <path d="M0.264935065,7.38121439 L4.32727273,7.38121439" id="Line" stroke-width="0.5" stroke-linecap="square"></path>
                        <path d="M2.38441558,9.70176842 L2.38441558,13.1844545" id="Line" stroke-width="0.5" stroke-linecap="round"></path>
                    </g>
                </g>
            </g>
        </g>
    </g>
</svg>