<?xml version="1.0" encoding="UTF-8" standalone="no"?>
<svg width="27px" height="25px" viewBox="0 0 27 25" version="1.1" xmlns="http://www.w3.org/2000/svg" xmlns:xlink="http://www.w3.org/1999/xlink">
    <!-- Generator: Sketch 3.7.1 (28215) - http://www.bohemiancoding.com/sketch -->
    <title>PLANTEL_filtro</title>
    <desc>Created with Sketch.</desc>
    <defs></defs>
    <g id="Page-1" stroke="none" stroke-width="1" fill="none" fill-rule="evenodd">
        <g id="01_Plantel" transform="translate(-329.000000, -48.000000)" fill="#000000">
            <g id="PLANTEL_filtro" transform="translate(329.000000, 48.000000)">
                <g id="Capa_1">
                    <path d="M26.8377637,0.500902935 C26.6536083,0.197121896 26.3188556,0.005248307 25.9505449,0.005248307 L1.00857112,0.005248307 C0.657039387,0.005248307 0.322227571,0.181151242 0.138131291,0.48493228 C-0.0459649891,0.788713318 -0.04602407,1.14051919 0.138131291,1.44430023 L8.6251116,15.4510722 L8.6251116,23.989447 C8.6251116,24.5170993 9.07708096,24.9488149 9.62948796,24.9488149 L16.3253107,24.9488149 C16.8777177,24.9488149 17.3296871,24.5170993 17.3296871,23.989447 L17.3296871,15.4990406 L26.7875449,1.47629797 C26.9884201,1.18848758 27.00514,0.820711061 26.8377637,0.500902935 L26.8377637,0.500902935 Z M15.4883107,14.6995485 C15.3878731,14.8594244 15.3209344,15.0353273 15.3209344,15.2272009 L15.3209344,23.030079 L10.6338643,23.030079 L10.6338643,15.1952596 C10.6338643,15.0193567 10.5836455,14.8594808 10.4999278,14.7155756 L2.74950985,1.9239842 L24.1092276,1.9239842 L15.4883107,14.6995485 L15.4883107,14.6995485 Z" id="Shape"></path>
                </g>
            </g>
        </g>
    </g>
</svg>