<?xml version="1.0" encoding="UTF-8" standalone="no"?>
<svg width="25px" height="24px" viewBox="0 0 25 24" version="1.1" xmlns="http://www.w3.org/2000/svg" xmlns:xlink="http://www.w3.org/1999/xlink">
    <!-- Generator: Sketch 3.7.1 (28215) - http://www.bohemiancoding.com/sketch -->
    <title>PLANTEL_orden</title>
    <desc>Created with Sketch.</desc>
    <defs></defs>
    <g id="Page-1" stroke="none" stroke-width="1" fill="none" fill-rule="evenodd">
        <g id="01_Plantel" transform="translate(-288.000000, -49.000000)" fill="#000000">
            <g id="PLANTEL_orden" transform="translate(288.000000, 49.000000)">
                <g id="Capa_1">
                    <g id="_x38__37_">
                        <path d="M24.1012622,20.5739595 L13.7943811,20.5739595 C13.3202362,20.5739595 12.9354642,20.9570676 12.9354642,21.4300135 C12.9354642,21.9029189 13.3202362,22.286027 13.7943811,22.286027 L24.1012622,22.2612568 C24.5754072,22.2612568 24.9601792,21.9029189 24.9601792,21.4300135 C24.9601384,20.9570676 24.5762215,20.5739595 24.1012622,20.5739595 L24.1012622,20.5739595 Z M12.0765879,1.73837838 L24.1012622,1.73667568 C24.5754072,1.73667568 24.9601792,1.35527027 24.9601792,0.882324324 C24.9601792,0.409378378 24.5754072,0.0262702703 24.1012622,0.0262702703 L12.0765879,0.0262702703 C11.602443,0.0262702703 11.217671,0.409378378 11.217671,0.882324324 C11.217671,1.35527027 11.602443,1.73837838 12.0765879,1.73837838 L12.0765879,1.73837838 Z M13.52557,15.6788514 C13.1888436,15.3418784 12.6425896,15.3418784 12.3059039,15.6788514 L7.78204397,20.8621622 L7.78204397,0.0262702703 L6.06425081,0.0262702703 L6.06425081,20.8929324 L1.51286645,15.6788514 C1.17618078,15.3418784 0.629885993,15.3418784 0.293241042,15.6788514 C-0.043485342,16.0158243 -0.043485342,16.5614189 0.293241042,16.8975 L6.25574104,23.7296351 C6.43526059,23.9092297 6.6740228,23.9853243 6.90850977,23.9733649 C7.14381107,23.9853243 7.38175896,23.9092297 7.56123779,23.7296351 L13.5237785,16.8975 C13.8622557,16.5614189 13.8622557,16.0158243 13.52557,15.6788514 L13.52557,15.6788514 Z M24.1012622,5.16340541 L12.0765879,5.16340541 C11.602443,5.16340541 11.217671,5.54655405 11.217671,6.01945946 C11.217671,6.49240541 11.602443,6.86781081 12.0765879,6.86781081 L24.1012622,6.86781081 C24.5754072,6.86781081 24.9601792,6.49236486 24.9601792,6.01945946 C24.9601384,5.54655405 24.5762215,5.16340541 24.1012622,5.16340541 L24.1012622,5.16340541 Z M24.1012622,10.2996892 L12.0765879,10.2996892 C11.602443,10.2996892 11.217671,10.6828378 11.217671,11.1557432 C11.217671,11.6286892 11.602443,11.9980946 12.0765879,11.9980946 L24.1012622,12.0117973 C24.5754072,12.0117973 24.9601792,11.6286486 24.9601792,11.1557432 C24.9601384,10.6836892 24.5762215,10.2996892 24.1012622,10.2996892 L24.1012622,10.2996892 Z M24.1012622,15.4368243 L17.2300081,15.4368243 C16.7558632,15.4368243 16.3710912,15.8199324 16.3710912,16.2928378 C16.3710912,16.7657838 16.7558632,17.1300811 17.2300081,17.1300811 L24.1012622,17.1300811 C24.5754072,17.1300811 24.9601792,16.7657838 24.9601792,16.2928378 C24.9601384,15.819973 24.5762215,15.4368243 24.1012622,15.4368243 L24.1012622,15.4368243 Z" id="Shape"></path>
                    </g>
                </g>
            </g>
        </g>
    </g>
</svg>